<svg xmlns="http://www.w3.org/2000/svg" xmlns:xlink="http://www.w3.org/1999/xlink" contentStyleType="text/css" height="305px" preserveAspectRatio="none" style="width:200px;height:305px;background:#FFFFFF;" version="1.1" viewBox="0 0 200 305" width="200px" zoomAndPan="magnify"><defs/><g><!--entity UI--><g id="elem_UI"><rect fill="#F1F1F1" height="46.2969" rx="2.5" ry="2.5" style="stroke:#181818;stroke-width:0.5;" width="173.3213" x="14" y="7"/><rect fill="#F1F1F1" height="10" style="stroke:#181818;stroke-width:0.5;" width="15" x="167.3213" y="12"/><rect fill="#F1F1F1" height="2" style="stroke:#181818;stroke-width:0.5;" width="4" x="165.3213" y="14"/><rect fill="#F1F1F1" height="2" style="stroke:#181818;stroke-width:0.5;" width="4" x="165.3213" y="18"/><text fill="#000000" font-family="sans-serif" font-size="14" lengthAdjust="spacing" textLength="133.3213" x="29" y="39.9951">Interfaz de Usuario</text></g><!--entity Ctrl--><g id="elem_Ctrl"><rect fill="#F1F1F1" height="46.2969" rx="2.5" ry="2.5" style="stroke:#181818;stroke-width:0.5;" width="187.0547" x="7" y="130"/><rect fill="#F1F1F1" height="10" style="stroke:#181818;stroke-width:0.5;" width="15" x="174.0547" y="135"/><rect fill="#F1F1F1" height="2" style="stroke:#181818;stroke-width:0.5;" width="4" x="172.0547" y="137"/><rect fill="#F1F1F1" height="2" style="stroke:#181818;stroke-width:0.5;" width="4" x="172.0547" y="141"/><text fill="#000000" font-family="sans-serif" font-size="14" lengthAdjust="spacing" textLength="147.0547" x="22" y="162.9951">Controlador Principal</text></g><!--entity Motor--><g id="elem_Motor"><rect fill="#F1F1F1" height="46.2969" rx="2.5" ry="2.5" style="stroke:#181818;stroke-width:0.5;" width="157.5508" x="21.5" y="253"/><rect fill="#F1F1F1" height="10" style="stroke:#181818;stroke-width:0.5;" width="15" x="159.0508" y="258"/><rect fill="#F1F1F1" height="2" style="stroke:#181818;stroke-width:0.5;" width="4" x="157.0508" y="260"/><rect fill="#F1F1F1" height="2" style="stroke:#181818;stroke-width:0.5;" width="4" x="157.0508" y="264"/><text fill="#000000" font-family="sans-serif" font-size="14" lengthAdjust="spacing" textLength="117.5508" x="36.5" y="285.9951">Motor de Lavado</text></g><!--link UI to Ctrl--><g id="link_UI_Ctrl"><path d="M100.5,53.19 C100.5,75.03 100.5,102.16 100.5,123.95 " fill="none" id="UI-to-Ctrl" style="stroke:#181818;stroke-width:1.0;stroke-dasharray:7.0,7.0;"/><polygon fill="#181818" points="100.5,129.95,104.5,120.95,100.5,124.95,96.5,120.95,100.5,129.95" style="stroke:#181818;stroke-width:1.0;"/><text fill="#000000" font-family="sans-serif" font-size="13" lengthAdjust="spacing" textLength="38.8857" x="101.5" y="96.0669">&#171;usa&#187;</text></g><!--link Ctrl to Motor--><g id="link_Ctrl_Motor"><path d="M100.5,176.19 C100.5,198.03 100.5,225.16 100.5,246.95 " fill="none" id="Ctrl-to-Motor" style="stroke:#181818;stroke-width:1.0;stroke-dasharray:7.0,7.0;"/><polygon fill="#181818" points="100.5,252.95,104.5,243.95,100.5,247.95,96.5,243.95,100.5,252.95" style="stroke:#181818;stroke-width:1.0;"/><text fill="#000000" font-family="sans-serif" font-size="13" lengthAdjust="spacing" textLength="38.8857" x="101.5" y="219.0669">&#171;usa&#187;</text></g><!--SRC=[JSmn2iCm30NGtQSGEK0E48ANJ8OMklW0md71u4f1LZhaz75LI3lg__UL-BKnPL8O0ccM9nwmPeXjHoay03Q8mQMVMfXKkEBA0WyfbCg6rToYKl_bdRMR_ko6xyxDMEPS332EtXOmmJpl3RrtTdxox_8gJW00]--></g></svg>