<svg xmlns="http://www.w3.org/2000/svg" xmlns:xlink="http://www.w3.org/1999/xlink" contentStyleType="text/css" height="328px" preserveAspectRatio="none" style="width:796px;height:328px;background:#FFFFFF;" version="1.1" viewBox="0 0 796 328" width="796px" zoomAndPan="magnify"><defs/><g><line style="stroke:#181818;stroke-width:0.5;stroke-dasharray:5.0,5.0;" x1="54" x2="54" y1="52.5938" y2="276.5234"/><line style="stroke:#181818;stroke-width:0.5;stroke-dasharray:5.0,5.0;" x1="242.1748" x2="242.1748" y1="52.5938" y2="276.5234"/><line style="stroke:#181818;stroke-width:0.5;stroke-dasharray:5.0,5.0;" x1="453.6191" x2="453.6191" y1="52.5938" y2="276.5234"/><line style="stroke:#181818;stroke-width:0.5;stroke-dasharray:5.0,5.0;" x1="599.145" x2="599.145" y1="52.5938" y2="276.5234"/><line style="stroke:#181818;stroke-width:0.5;stroke-dasharray:5.0,5.0;" x1="728.772" x2="728.772" y1="52.5938" y2="276.5234"/><rect fill="#E2E2F0" height="46.5938" rx="2.5" ry="2.5" style="stroke:#181818;stroke-width:0.5;" width="99.5449" x="5" y="5"/><text fill="#000000" font-family="sans-serif" font-size="14" lengthAdjust="spacing" textLength="79.7412" x="14.9019" y="24.9951">UC_CAT_06</text><text fill="#000000" font-family="sans-serif" font-size="14" lengthAdjust="spacing" textLength="85.5449" x="12" y="41.292">Ver Detalles</text><rect fill="#E2E2F0" height="46.5938" rx="2.5" ry="2.5" style="stroke:#181818;stroke-width:0.5;" width="99.5449" x="5" y="275.5234"/><text fill="#000000" font-family="sans-serif" font-size="14" lengthAdjust="spacing" textLength="79.7412" x="14.9019" y="295.5186">UC_CAT_06</text><text fill="#000000" font-family="sans-serif" font-size="14" lengthAdjust="spacing" textLength="85.5449" x="12" y="311.8154">Ver Detalles</text><rect fill="#E2E2F0" height="46.5938" rx="2.5" ry="2.5" style="stroke:#181818;stroke-width:0.5;" width="122.3154" x="181.1748" y="5"/><text fill="#000000" font-family="sans-serif" font-size="14" lengthAdjust="spacing" textLength="80.917" x="201.874" y="24.9951">UC_CAR_01</text><text fill="#000000" font-family="sans-serif" font-size="14" lengthAdjust="spacing" textLength="108.3154" x="188.1748" y="41.292">Agregar Carrito</text><rect fill="#E2E2F0" height="46.5938" rx="2.5" ry="2.5" style="stroke:#181818;stroke-width:0.5;" width="122.3154" x="181.1748" y="275.5234"/><text fill="#000000" font-family="sans-serif" font-size="14" lengthAdjust="spacing" textLength="80.917" x="201.874" y="295.5186">UC_CAR_01</text><text fill="#000000" font-family="sans-serif" font-size="14" lengthAdjust="spacing" textLength="108.3154" x="188.1748" y="311.8154">Agregar Carrito</text><rect fill="#E2E2F0" height="46.5938" rx="2.5" ry="2.5" style="stroke:#181818;stroke-width:0.5;" width="100.0781" x="403.6191" y="5"/><text fill="#000000" font-family="sans-serif" font-size="14" lengthAdjust="spacing" textLength="83.3643" x="411.9761" y="24.9951">UC_ORD_01</text><text fill="#000000" font-family="sans-serif" font-size="14" lengthAdjust="spacing" textLength="86.0781" x="410.6191" y="41.292">Crear Orden</text><rect fill="#E2E2F0" height="46.5938" rx="2.5" ry="2.5" style="stroke:#181818;stroke-width:0.5;" width="100.0781" x="403.6191" y="275.5234"/><text fill="#000000" font-family="sans-serif" font-size="14" lengthAdjust="spacing" textLength="83.3643" x="411.9761" y="295.5186">UC_ORD_01</text><text fill="#000000" font-family="sans-serif" font-size="14" lengthAdjust="spacing" textLength="86.0781" x="410.6191" y="311.8154">Crear Orden</text><rect fill="#E2E2F0" height="46.5938" rx="2.5" ry="2.5" style="stroke:#181818;stroke-width:0.5;" width="113.627" x="543.145" y="5"/><text fill="#000000" font-family="sans-serif" font-size="14" lengthAdjust="spacing" textLength="80.7051" x="559.606" y="24.9951">UC_PAG_01</text><text fill="#000000" font-family="sans-serif" font-size="14" lengthAdjust="spacing" textLength="99.627" x="550.145" y="41.292">Procesar Pago</text><rect fill="#E2E2F0" height="46.5938" rx="2.5" ry="2.5" style="stroke:#181818;stroke-width:0.5;" width="113.627" x="543.145" y="275.5234"/><text fill="#000000" font-family="sans-serif" font-size="14" lengthAdjust="spacing" textLength="80.7051" x="559.606" y="295.5186">UC_PAG_01</text><text fill="#000000" font-family="sans-serif" font-size="14" lengthAdjust="spacing" textLength="99.627" x="550.145" y="311.8154">Procesar Pago</text><rect fill="#E2E2F0" height="46.5938" rx="2.5" ry="2.5" style="stroke:#181818;stroke-width:0.5;" width="124.0039" x="666.772" y="5"/><text fill="#000000" font-family="sans-serif" font-size="14" lengthAdjust="spacing" textLength="81.5049" x="688.0215" y="24.9951">UC_LOG_01</text><text fill="#000000" font-family="sans-serif" font-size="14" lengthAdjust="spacing" textLength="110.0039" x="673.772" y="41.292">Consultar Env&#237;o</text><rect fill="#E2E2F0" height="46.5938" rx="2.5" ry="2.5" style="stroke:#181818;stroke-width:0.5;" width="124.0039" x="666.772" y="275.5234"/><text fill="#000000" font-family="sans-serif" font-size="14" lengthAdjust="spacing" textLength="81.5049" x="688.0215" y="295.5186">UC_LOG_01</text><text fill="#000000" font-family="sans-serif" font-size="14" lengthAdjust="spacing" textLength="110.0039" x="673.772" y="311.8154">Consultar Env&#237;o</text><polygon fill="#181818" points="230.3325,79.7266,240.3325,83.7266,230.3325,87.7266,234.3325,83.7266" style="stroke:#181818;stroke-width:1.0;"/><line style="stroke:#181818;stroke-width:1.0;" x1="54.7725" x2="236.3325" y1="83.7266" y2="83.7266"/><text fill="#000000" font-family="sans-serif" font-size="13" lengthAdjust="spacing" textLength="163.5601" x="61.7725" y="78.6606">1. producto seleccionado</text><polygon fill="#181818" points="441.6582,108.8594,451.6582,112.8594,441.6582,116.8594,445.6582,112.8594" style="stroke:#181818;stroke-width:1.0;"/><line style="stroke:#181818;stroke-width:1.0;" x1="242.3325" x2="447.6582" y1="112.8594" y2="112.8594"/><text fill="#000000" font-family="sans-serif" font-size="13" lengthAdjust="spacing" textLength="187.3257" x="249.3325" y="107.7935">2. carrito listo para checkout</text><polygon fill="#181818" points="716.7739,137.9922,726.7739,141.9922,716.7739,145.9922,720.7739,141.9922" style="stroke:#181818;stroke-width:1.0;"/><line style="stroke:#181818;stroke-width:1.0;" x1="453.6582" x2="722.7739" y1="141.9922" y2="141.9922"/><text fill="#000000" font-family="sans-serif" font-size="13" lengthAdjust="spacing" textLength="178.5977" x="460.6582" y="136.9263">3. consultar opciones env&#237;o</text><polygon fill="#181818" points="464.6582,167.125,454.6582,171.125,464.6582,175.125,460.6582,171.125" style="stroke:#181818;stroke-width:1.0;"/><line style="stroke:#181818;stroke-width:1.0;stroke-dasharray:2.0,2.0;" x1="458.6582" x2="727.7739" y1="171.125" y2="171.125"/><text fill="#000000" font-family="sans-serif" font-size="13" lengthAdjust="spacing" textLength="151.9248" x="470.6582" y="166.0591">4. opciones disponibles</text><polygon fill="#181818" points="587.9585,196.2578,597.9585,200.2578,587.9585,204.2578,591.9585,200.2578" style="stroke:#181818;stroke-width:1.0;"/><line style="stroke:#181818;stroke-width:1.0;" x1="453.6582" x2="593.9585" y1="200.2578" y2="200.2578"/><text fill="#000000" font-family="sans-serif" font-size="13" lengthAdjust="spacing" textLength="109.8716" x="460.6582" y="195.1919">5. procesar pago</text><polygon fill="#181818" points="464.6582,225.3906,454.6582,229.3906,464.6582,233.3906,460.6582,229.3906" style="stroke:#181818;stroke-width:1.0;"/><line style="stroke:#181818;stroke-width:1.0;stroke-dasharray:2.0,2.0;" x1="458.6582" x2="598.9585" y1="229.3906" y2="229.3906"/><text fill="#000000" font-family="sans-serif" font-size="13" lengthAdjust="spacing" textLength="122.3003" x="470.6582" y="224.3247">6. pago autorizado</text><polygon fill="#181818" points="253.3325,254.5234,243.3325,258.5234,253.3325,262.5234,249.3325,258.5234" style="stroke:#181818;stroke-width:1.0;"/><line style="stroke:#181818;stroke-width:1.0;stroke-dasharray:2.0,2.0;" x1="247.3325" x2="452.6582" y1="258.5234" y2="258.5234"/><text fill="#000000" font-family="sans-serif" font-size="13" lengthAdjust="spacing" textLength="103.1304" x="259.3325" y="253.4575">7. orden creada</text><!--SRC=[PP2nQiCm48PtFSNXFIQ9xHGw58nIkXHiGjCfO5HPkA969oIvGz-fJz4NwqaEzc0D6gJlk_llh711Iss52P1TUSVhjsv_kfbtvU2iWXX7vJE8HtYuyWEp6-7IxGytKmzE3S815yxfWDbTE6w4vd9E0dUAyCRroimDPg7O26tzaeJMeLIUd5OCc2r2kH5UcrdWQFmq1ZAUpVVVxvAfOemcWTrJp0UFSCZ1Ekmd6H2y6fMK6eteaSNlH1L47NEGysmmQaytjHKWFvNymYcm22Ms8hOWTccEDjPJ7bHAmIAoMygM-Ghqsbiq-eDsljOh2QfImdbwIzEp-BpMEENf5SGKqEcVENfn1-A43zGaBXeaBRqN_m00]--></g></svg>