<svg xmlns="http://www.w3.org/2000/svg" xmlns:xlink="http://www.w3.org/1999/xlink" contentStyleType="text/css" height="474px" preserveAspectRatio="none" style="width:638px;height:474px;background:#FAFAFA;" version="1.1" viewBox="0 0 638 474" width="638px" zoomAndPan="magnify"><defs/><g><rect fill="#FAFAFA" height="474" style="stroke:none;stroke-width:1.0;" width="638" x="0" y="0"/><ellipse cx="380.2986" cy="20" fill="#222222" rx="10" ry="10" style="stroke:#222222;stroke-width:1.0;"/><rect fill="#E3F2FD" height="33.9688" rx="12.5" ry="12.5" style="stroke:#1976D2;stroke-width:0.5;" width="146.0469" x="307.2751" y="50"/><text fill="#000000" font-family="sans-serif" font-size="12" lengthAdjust="spacing" textLength="126.0469" x="317.2751" y="71.1387">Verificar completitud</text><polygon fill="#E3F2FD" points="318.813,103.9688,441.7842,103.9688,453.7842,115.9688,441.7842,127.9688,318.813,127.9688,306.813,115.9688,318.813,103.9688" style="stroke:#1976D2;stroke-width:0.5;"/><text fill="#000000" font-family="sans-serif" font-size="11" lengthAdjust="spacing" textLength="122.9712" x="318.813" y="119.7769">Artefactos completos?</text><text fill="#000000" font-family="sans-serif" font-size="11" lengthAdjust="spacing" textLength="8.7871" x="298.0259" y="113.3745">si</text><text fill="#000000" font-family="sans-serif" font-size="11" lengthAdjust="spacing" textLength="13.7017" x="453.7842" y="113.3745">no</text><rect fill="#E3F2FD" height="33.9688" rx="12.5" ry="12.5" style="stroke:#1976D2;stroke-width:0.5;" width="132.1895" x="168.896" y="137.9688"/><text fill="#000000" font-family="sans-serif" font-size="12" lengthAdjust="spacing" textLength="112.1895" x="178.896" y="159.1074">Validar con Sphinx</text><polygon fill="#E3F2FD" points="202.0364,191.9375,267.9451,191.9375,279.9451,203.9375,267.9451,215.9375,202.0364,215.9375,190.0364,203.9375,202.0364,191.9375" style="stroke:#1976D2;stroke-width:0.5;"/><text fill="#000000" font-family="sans-serif" font-size="11" lengthAdjust="spacing" textLength="65.9087" x="202.0364" y="207.7456">Sin errores?</text><text fill="#000000" font-family="sans-serif" font-size="11" lengthAdjust="spacing" textLength="8.7871" x="181.2493" y="201.3433">si</text><text fill="#000000" font-family="sans-serif" font-size="11" lengthAdjust="spacing" textLength="13.7017" x="279.9451" y="201.3433">no</text><rect fill="#E3F2FD" height="33.9688" rx="12.5" ry="12.5" style="stroke:#1976D2;stroke-width:0.5;" width="136.2852" x="66.2129" y="225.9375"/><text fill="#000000" font-family="sans-serif" font-size="12" lengthAdjust="spacing" textLength="116.2852" x="76.2129" y="247.0762">Actualizar index.rst</text><rect fill="#E3F2FD" height="33.9688" rx="12.5" ry="12.5" style="stroke:#1976D2;stroke-width:0.5;" width="246.7109" x="11" y="279.9063"/><text fill="#000000" font-family="sans-serif" font-size="12" lengthAdjust="spacing" textLength="226.7109" x="21" y="301.0449">Marcar como CONGELADO en modelo</text><rect fill="#E3F2FD" height="33.9688" rx="12.5" ry="12.5" style="stroke:#1976D2;stroke-width:0.5;" width="243.3535" x="12.6787" y="333.875"/><text fill="#000000" font-family="sans-serif" font-size="12" lengthAdjust="spacing" textLength="223.3535" x="22.6787" y="355.0137">Documentar fecha de congelamiento</text><rect fill="#E3F2FD" height="33.9688" rx="12.5" ry="12.5" style="stroke:#1976D2;stroke-width:0.5;" width="115.5137" x="76.5986" y="387.8438"/><text fill="#000000" font-family="sans-serif" font-size="12" lengthAdjust="spacing" textLength="95.5137" x="86.5986" y="408.9824">Notificar equipo</text><rect fill="#E3F2FD" height="33.9688" rx="12.5" ry="12.5" style="stroke:#1976D2;stroke-width:0.5;" width="115.8301" x="277.7109" y="225.9375"/><text fill="#000000" font-family="sans-serif" font-size="12" lengthAdjust="spacing" textLength="95.8301" x="287.7109" y="247.0762">Corregir errores</text><ellipse cx="335.626" cy="290.9063" fill="none" rx="11" ry="11" style="stroke:#222222;stroke-width:1.0;"/><ellipse cx="335.626" cy="290.9063" fill="#222222" rx="6" ry="6" style="stroke:#222222;stroke-width:1.0;"/><rect fill="#E3F2FD" height="33.9688" rx="12.5" ry="12.5" style="stroke:#1976D2;stroke-width:0.5;" width="204.1309" x="423.541" y="137.9688"/><text fill="#000000" font-family="sans-serif" font-size="12" lengthAdjust="spacing" textLength="184.1309" x="433.541" y="159.1074">Completar artefactos faltantes</text><ellipse cx="525.6064" cy="202.9375" fill="none" rx="11" ry="11" style="stroke:#222222;stroke-width:1.0;"/><ellipse cx="525.6064" cy="202.9375" fill="#222222" rx="6" ry="6" style="stroke:#222222;stroke-width:1.0;"/><ellipse cx="380.2986" cy="452.8125" fill="none" rx="11" ry="11" style="stroke:#222222;stroke-width:1.0;"/><ellipse cx="380.2986" cy="452.8125" fill="#222222" rx="6" ry="6" style="stroke:#222222;stroke-width:1.0;"/><line style="stroke:#181818;stroke-width:1.0;" x1="380.2986" x2="380.2986" y1="30" y2="50"/><polygon fill="#181818" points="376.2986,40,380.2986,50,384.2986,40,380.2986,44" style="stroke:#181818;stroke-width:1.0;"/><line style="stroke:#181818;stroke-width:1.0;" x1="134.3555" x2="134.3555" y1="259.9063" y2="279.9063"/><polygon fill="#181818" points="130.3555,269.9063,134.3555,279.9063,138.3555,269.9063,134.3555,273.9063" style="stroke:#181818;stroke-width:1.0;"/><line style="stroke:#181818;stroke-width:1.0;" x1="134.3555" x2="134.3555" y1="313.875" y2="333.875"/><polygon fill="#181818" points="130.3555,323.875,134.3555,333.875,138.3555,323.875,134.3555,327.875" style="stroke:#181818;stroke-width:1.0;"/><line style="stroke:#181818;stroke-width:1.0;" x1="134.3555" x2="134.3555" y1="367.8438" y2="387.8438"/><polygon fill="#181818" points="130.3555,377.8438,134.3555,387.8438,138.3555,377.8438,134.3555,381.8438" style="stroke:#181818;stroke-width:1.0;"/><line style="stroke:#181818;stroke-width:1.0;" x1="335.626" x2="335.626" y1="259.9063" y2="279.9063"/><polygon fill="#181818" points="331.626,269.9063,335.626,279.9063,339.626,269.9063,335.626,273.9063" style="stroke:#181818;stroke-width:1.0;"/><line style="stroke:#181818;stroke-width:1.0;" x1="190.0364" x2="134.3555" y1="203.9375" y2="203.9375"/><line style="stroke:#181818;stroke-width:1.0;" x1="134.3555" x2="134.3555" y1="203.9375" y2="225.9375"/><polygon fill="#181818" points="130.3555,215.9375,134.3555,225.9375,138.3555,215.9375,134.3555,219.9375" style="stroke:#181818;stroke-width:1.0;"/><line style="stroke:#181818;stroke-width:1.0;" x1="279.9451" x2="335.626" y1="203.9375" y2="203.9375"/><line style="stroke:#181818;stroke-width:1.0;" x1="335.626" x2="335.626" y1="203.9375" y2="225.9375"/><polygon fill="#181818" points="331.626,215.9375,335.626,225.9375,339.626,215.9375,335.626,219.9375" style="stroke:#181818;stroke-width:1.0;"/><line style="stroke:#181818;stroke-width:1.0;" x1="134.3555" x2="134.3555" y1="421.8125" y2="426.8125"/><line style="stroke:#181818;stroke-width:1.0;" x1="134.3555" x2="380.2986" y1="426.8125" y2="426.8125"/><line style="stroke:#181818;stroke-width:1.0;" x1="380.2986" x2="380.2986" y1="426.8125" y2="441.8125"/><polygon fill="#181818" points="376.2986,431.8125,380.2986,441.8125,384.2986,431.8125,380.2986,435.8125" style="stroke:#181818;stroke-width:1.0;"/><line style="stroke:#181818;stroke-width:1.0;" x1="234.9907" x2="234.9907" y1="171.9375" y2="191.9375"/><polygon fill="#181818" points="230.9907,181.9375,234.9907,191.9375,238.9907,181.9375,234.9907,185.9375" style="stroke:#181818;stroke-width:1.0;"/><line style="stroke:#181818;stroke-width:1.0;" x1="525.6064" x2="525.6064" y1="171.9375" y2="191.9375"/><polygon fill="#181818" points="521.6064,181.9375,525.6064,191.9375,529.6064,181.9375,525.6064,185.9375" style="stroke:#181818;stroke-width:1.0;"/><line style="stroke:#181818;stroke-width:1.0;" x1="306.813" x2="234.9907" y1="115.9688" y2="115.9688"/><line style="stroke:#181818;stroke-width:1.0;" x1="234.9907" x2="234.9907" y1="115.9688" y2="137.9688"/><polygon fill="#181818" points="230.9907,127.9688,234.9907,137.9688,238.9907,127.9688,234.9907,131.9688" style="stroke:#181818;stroke-width:1.0;"/><line style="stroke:#181818;stroke-width:1.0;" x1="453.7842" x2="525.6064" y1="115.9688" y2="115.9688"/><line style="stroke:#181818;stroke-width:1.0;" x1="525.6064" x2="525.6064" y1="115.9688" y2="137.9688"/><polygon fill="#181818" points="521.6064,127.9688,525.6064,137.9688,529.6064,127.9688,525.6064,131.9688" style="stroke:#181818;stroke-width:1.0;"/><line style="stroke:#181818;stroke-width:1.0;" x1="380.2986" x2="380.2986" y1="83.9688" y2="103.9688"/><polygon fill="#181818" points="376.2986,93.9688,380.2986,103.9688,384.2986,93.9688,380.2986,97.9688" style="stroke:#181818;stroke-width:1.0;"/><!--SRC=[NP11Jm8n48Nl_HMJU5ak9aAY4GvcOS6Bme74-zZEmeHkPvrs3MhyxtR9ef7qqhnvN-UznWE75XKRU4LxsAbqmIt4YyBLgkoFYRyEj8dVENt0bvbVcfUJrNXLcRce8nsqc_kxssfiles92JMPwGifrsnHmKhJUagSEZSpXcieIarKvmqIpqE93oD8UmfGH1vb6Zsx4njWs-uv70Tqom58LPGkYDAcBaEV6UBWw7YjCStCz1bro22msAmVbqzbjO5CDUB8ItPKOhk6GauDDTazWgD-xOuyDfprthEMD9IXjuxRB96F14MGl7aXghHZFUUQvI-Grb1mNF_tdQhcH_2lVuq-OKWNrEd-0m00]--></g></svg>