<svg xmlns="http://www.w3.org/2000/svg" xmlns:xlink="http://www.w3.org/1999/xlink" contentStyleType="text/css" height="568px" preserveAspectRatio="none" style="width:331px;height:568px;background:#FFFFFF;" version="1.1" viewBox="0 0 331 568" width="331px" zoomAndPan="magnify"><defs/><g><ellipse cx="165.7441" cy="20" fill="#222222" rx="10" ry="10" style="stroke:#222222;stroke-width:1.0;"/><rect fill="#F1F1F1" height="33.9688" rx="12.5" ry="12.5" style="stroke:#181818;stroke-width:0.5;" width="309.4883" x="11" y="50"/><text fill="#000000" font-family="sans-serif" font-size="12" lengthAdjust="spacing" textLength="289.4883" x="21" y="71.1387">GET /api/v1/reportes/transferencias/?trimestre=</text><rect fill="#F1F1F1" height="33.9688" rx="12.5" ry="12.5" style="stroke:#181818;stroke-width:0.5;" width="183.5527" x="73.9678" y="103.9688"/><text fill="#000000" font-family="sans-serif" font-size="12" lengthAdjust="spacing" textLength="163.5527" x="83.9678" y="125.1074">JWT + RBAC (view_reports)</text><rect fill="#F1F1F1" height="33.9688" rx="12.5" ry="12.5" style="stroke:#181818;stroke-width:0.5;" width="305.2402" x="13.124" y="157.9375"/><text fill="#000000" font-family="sans-serif" font-size="12" lengthAdjust="spacing" textLength="285.2402" x="23.124" y="179.0762">Resolver segmento (&#171;include&#187; UC_INC_RPT_01)</text><rect fill="#F1F1F1" height="33.9688" rx="12.5" ry="12.5" style="stroke:#181818;stroke-width:0.5;" width="101.3223" x="115.083" y="211.9063"/><text fill="#000000" font-family="sans-serif" font-size="12" lengthAdjust="spacing" textLength="81.3223" x="125.083" y="233.0449">Cache lookup</text><rect fill="#F1F1F1" height="33.9688" rx="12.5" ry="12.5" style="stroke:#181818;stroke-width:0.5;" width="254.9316" x="38.2783" y="265.875"/><text fill="#000000" font-family="sans-serif" font-size="12" lengthAdjust="spacing" textLength="234.9316" x="48.2783" y="287.0137">Consultar sp_rpt_centros_transferencia</text><rect fill="#F1F1F1" height="33.9688" rx="12.5" ry="12.5" style="stroke:#181818;stroke-width:0.5;" width="242.3457" x="44.5713" y="319.8438"/><text fill="#000000" font-family="sans-serif" font-size="12" lengthAdjust="spacing" textLength="222.3457" x="54.5713" y="340.9824">Consultar sp_rpt_centros_xsegmento</text><rect fill="#F1F1F1" height="33.9688" rx="12.5" ry="12.5" style="stroke:#181818;stroke-width:0.5;" width="215.1465" x="58.1709" y="373.8125"/><text fill="#000000" font-family="sans-serif" font-size="12" lengthAdjust="spacing" textLength="195.1465" x="68.1709" y="394.9512">Construir ReporteTransferencias</text><rect fill="#F1F1F1" height="33.9688" rx="12.5" ry="12.5" style="stroke:#181818;stroke-width:0.5;" width="149.4336" x="91.0273" y="427.7813"/><text fill="#000000" font-family="sans-serif" font-size="12" lengthAdjust="spacing" textLength="129.4336" x="101.0273" y="448.9199">Cache write TTL 300s</text><rect fill="#F1F1F1" height="33.9688" rx="12.5" ry="12.5" style="stroke:#181818;stroke-width:0.5;" width="42.9043" x="144.292" y="481.75"/><text fill="#000000" font-family="sans-serif" font-size="12" lengthAdjust="spacing" textLength="22.9043" x="154.292" y="502.8887">200</text><ellipse cx="165.7441" cy="546.7188" fill="none" rx="11" ry="11" style="stroke:#222222;stroke-width:1.0;"/><ellipse cx="165.7441" cy="546.7188" fill="#222222" rx="6" ry="6" style="stroke:#222222;stroke-width:1.0;"/><line style="stroke:#181818;stroke-width:1.0;" x1="165.7441" x2="165.7441" y1="30" y2="50"/><polygon fill="#181818" points="161.7441,40,165.7441,50,169.7441,40,165.7441,44" style="stroke:#181818;stroke-width:1.0;"/><line style="stroke:#181818;stroke-width:1.0;" x1="165.7441" x2="165.7441" y1="83.9688" y2="103.9688"/><polygon fill="#181818" points="161.7441,93.9688,165.7441,103.9688,169.7441,93.9688,165.7441,97.9688" style="stroke:#181818;stroke-width:1.0;"/><line style="stroke:#181818;stroke-width:1.0;" x1="165.7441" x2="165.7441" y1="137.9375" y2="157.9375"/><polygon fill="#181818" points="161.7441,147.9375,165.7441,157.9375,169.7441,147.9375,165.7441,151.9375" style="stroke:#181818;stroke-width:1.0;"/><line style="stroke:#181818;stroke-width:1.0;" x1="165.7441" x2="165.7441" y1="191.9063" y2="211.9063"/><polygon fill="#181818" points="161.7441,201.9063,165.7441,211.9063,169.7441,201.9063,165.7441,205.9063" style="stroke:#181818;stroke-width:1.0;"/><line style="stroke:#181818;stroke-width:1.0;" x1="165.7441" x2="165.7441" y1="245.875" y2="265.875"/><polygon fill="#181818" points="161.7441,255.875,165.7441,265.875,169.7441,255.875,165.7441,259.875" style="stroke:#181818;stroke-width:1.0;"/><line style="stroke:#181818;stroke-width:1.0;" x1="165.7441" x2="165.7441" y1="299.8438" y2="319.8438"/><polygon fill="#181818" points="161.7441,309.8438,165.7441,319.8438,169.7441,309.8438,165.7441,313.8438" style="stroke:#181818;stroke-width:1.0;"/><line style="stroke:#181818;stroke-width:1.0;" x1="165.7441" x2="165.7441" y1="353.8125" y2="373.8125"/><polygon fill="#181818" points="161.7441,363.8125,165.7441,373.8125,169.7441,363.8125,165.7441,367.8125" style="stroke:#181818;stroke-width:1.0;"/><line style="stroke:#181818;stroke-width:1.0;" x1="165.7441" x2="165.7441" y1="407.7813" y2="427.7813"/><polygon fill="#181818" points="161.7441,417.7813,165.7441,427.7813,169.7441,417.7813,165.7441,421.7813" style="stroke:#181818;stroke-width:1.0;"/><line style="stroke:#181818;stroke-width:1.0;" x1="165.7441" x2="165.7441" y1="461.75" y2="481.75"/><polygon fill="#181818" points="161.7441,471.75,165.7441,481.75,169.7441,471.75,165.7441,475.75" style="stroke:#181818;stroke-width:1.0;"/><line style="stroke:#181818;stroke-width:1.0;" x1="165.7441" x2="165.7441" y1="515.7188" y2="535.7188"/><polygon fill="#181818" points="161.7441,525.7188,165.7441,535.7188,169.7441,525.7188,165.7441,529.7188" style="stroke:#181818;stroke-width:1.0;"/><!--SRC=[VOzFYy8m4CNl_HHpL3mawarT5oqYYeYKB7iCeJjgi2PXPbhtus-BVy3B7cVcz-Qzn-98iibwPK2vv5KpL8GfaY0h8HVuY8IXz8xLfv2_8WlXnpIRRByD3A1OBdBeDHvlzYxZVdiha6FL807ZwOf18lHcCn_Aglx1-Ho-ShlPvxOu6Ak77P-xyenGnNYfKpV6m7NL1WDEbfBOilr1aUrReF_0twVn0nAgFK5nBsRUQhtiR-G5mPWTZBNkrYEjfnbBJ7y0]--></g></svg>