<svg xmlns="http://www.w3.org/2000/svg" xmlns:xlink="http://www.w3.org/1999/xlink" contentStyleType="text/css" height="421px" preserveAspectRatio="none" style="width:722px;height:421px;background:#FFFFFF;" version="1.1" viewBox="0 0 722 421" width="722px" zoomAndPan="magnify"><defs/><g><ellipse cx="232.5366" cy="20" fill="#222222" rx="10" ry="10" style="stroke:#222222;stroke-width:1.0;"/><rect fill="#F1F1F1" height="47.9375" rx="12.5" ry="12.5" style="stroke:#181818;stroke-width:0.5;" width="169.1855" x="147.9438" y="50"/><text fill="#000000" font-family="sans-serif" font-size="12" lengthAdjust="spacing" textLength="138.5098" x="157.9438" y="71.1387">Solicitud de asignaci&#243;n</text><text fill="#000000" font-family="sans-serif" font-size="12" lengthAdjust="spacing" textLength="149.1855" x="157.9438" y="85.1074">de funci&#243;n F al usuario U</text><rect fill="#F1F1F1" height="33.9688" rx="12.5" ry="12.5" style="stroke:#181818;stroke-width:0.5;" width="260.334" x="102.3696" y="117.9375"/><text fill="#000000" font-family="sans-serif" font-size="12" lengthAdjust="spacing" textLength="240.334" x="112.3696" y="139.0762">Obtener funciones activas del usuario U</text><path d="M336.5381,161.9063 L336.5381,217.3047 L710.3789,217.3047 L710.3789,171.9063 L700.3789,161.9063 L336.5381,161.9063 " fill="#FEFFDD" style="stroke:#181818;stroke-width:0.5;"/><path d="M700.3789,161.9063 L700.3789,171.9063 L710.3789,171.9063 L700.3789,161.9063 " fill="#FEFFDD" style="stroke:#181818;stroke-width:0.5;"/><text fill="#000000" font-family="sans-serif" font-size="13" lengthAdjust="spacing" textLength="131.8218" x="342.5381" y="178.9731">Conflictos definidos:</text><text fill="#000000" font-family="sans-serif" font-size="13" lengthAdjust="spacing" textLength="222.3076" x="342.5381" y="194.106">- Creador de usuarios &lt;-&gt; Auditor</text><text fill="#000000" font-family="sans-serif" font-size="13" lengthAdjust="spacing" textLength="352.8408" x="342.5381" y="209.2388">- Administrador de reportes &lt;-&gt; Exportaci&#243;n ilimitada</text><polygon fill="#F1F1F1" points="140.5352,217.3047,324.5381,217.3047,336.5381,230.1094,324.5381,242.9141,140.5352,242.9141,128.5352,230.1094,140.5352,217.3047" style="stroke:#181818;stroke-width:0.5;"/><text fill="#000000" font-family="sans-serif" font-size="11" lengthAdjust="spacing" textLength="157.9209" x="140.5352" y="227.5151">&#191;Alguna funci&#243;n activa entra</text><text fill="#000000" font-family="sans-serif" font-size="11" lengthAdjust="spacing" textLength="184.0029" x="140.5352" y="240.3198">en conflicto de separacion con F?</text><text fill="#000000" font-family="sans-serif" font-size="11" lengthAdjust="spacing" textLength="8.7871" x="119.748" y="227.5151">s&#237;</text><text fill="#000000" font-family="sans-serif" font-size="11" lengthAdjust="spacing" textLength="13.7017" x="336.5381" y="227.5151">no</text><rect fill="#F1F1F1" height="47.9375" rx="12.5" ry="12.5" style="stroke:#181818;stroke-width:0.5;" width="215.0703" x="11" y="252.9141"/><text fill="#000000" font-family="sans-serif" font-size="12" lengthAdjust="spacing" textLength="124.0723" x="21" y="274.0527">Rechazar asignaci&#243;n</text><text fill="#000000" font-family="sans-serif" font-size="12" lengthAdjust="spacing" textLength="195.0703" x="21" y="288.0215">&#8594; error SEPARATION_VIOLATION</text><ellipse cx="118.5352" cy="345.8203" fill="none" rx="11" ry="11" style="stroke:#222222;stroke-width:1.0;"/><ellipse cx="118.5352" cy="345.8203" fill="#222222" rx="6" ry="6" style="stroke:#222222;stroke-width:1.0;"/><rect fill="#F1F1F1" height="33.9688" rx="12.5" ry="12.5" style="stroke:#181818;stroke-width:0.5;" width="143.0586" x="275.0088" y="252.9141"/><text fill="#000000" font-family="sans-serif" font-size="12" lengthAdjust="spacing" textLength="123.0586" x="285.0088" y="274.0527">Registrar asignaci&#243;n</text><rect fill="#F1F1F1" height="47.9375" rx="12.5" ry="12.5" style="stroke:#181818;stroke-width:0.5;" width="151.7598" x="270.6582" y="320.8516"/><text fill="#000000" font-family="sans-serif" font-size="12" lengthAdjust="spacing" textLength="105.2402" x="280.6582" y="341.9902">Emitir AuditEvent</text><text fill="#000000" font-family="sans-serif" font-size="12" lengthAdjust="spacing" textLength="131.7598" x="280.6582" y="355.959">(PERMISSION_GRANT)</text><ellipse cx="346.5381" cy="399.7891" fill="none" rx="11" ry="11" style="stroke:#222222;stroke-width:1.0;"/><ellipse cx="346.5381" cy="399.7891" fill="#222222" rx="6" ry="6" style="stroke:#222222;stroke-width:1.0;"/><line style="stroke:#181818;stroke-width:1.0;" x1="232.5366" x2="232.5366" y1="30" y2="50"/><polygon fill="#181818" points="228.5366,40,232.5366,50,236.5366,40,232.5366,44" style="stroke:#181818;stroke-width:1.0;"/><line style="stroke:#181818;stroke-width:1.0;" x1="232.5366" x2="232.5366" y1="97.9375" y2="117.9375"/><polygon fill="#181818" points="228.5366,107.9375,232.5366,117.9375,236.5366,107.9375,232.5366,111.9375" style="stroke:#181818;stroke-width:1.0;"/><line style="stroke:#181818;stroke-width:1.0;" x1="118.5352" x2="118.5352" y1="300.8516" y2="334.8203"/><polygon fill="#181818" points="114.5352,324.8203,118.5352,334.8203,122.5352,324.8203,118.5352,328.8203" style="stroke:#181818;stroke-width:1.0;"/><line style="stroke:#181818;stroke-width:1.0;" x1="346.5381" x2="346.5381" y1="286.8828" y2="320.8516"/><polygon fill="#181818" points="342.5381,310.8516,346.5381,320.8516,350.5381,310.8516,346.5381,314.8516" style="stroke:#181818;stroke-width:1.0;"/><line style="stroke:#181818;stroke-width:1.0;" x1="346.5381" x2="346.5381" y1="368.7891" y2="388.7891"/><polygon fill="#181818" points="342.5381,378.7891,346.5381,388.7891,350.5381,378.7891,346.5381,382.7891" style="stroke:#181818;stroke-width:1.0;"/><line style="stroke:#181818;stroke-width:1.0;" x1="128.5352" x2="118.5352" y1="230.1094" y2="230.1094"/><line style="stroke:#181818;stroke-width:1.0;" x1="118.5352" x2="118.5352" y1="230.1094" y2="252.9141"/><polygon fill="#181818" points="114.5352,242.9141,118.5352,252.9141,122.5352,242.9141,118.5352,246.9141" style="stroke:#181818;stroke-width:1.0;"/><line style="stroke:#181818;stroke-width:1.0;" x1="336.5381" x2="346.5381" y1="230.1094" y2="230.1094"/><line style="stroke:#181818;stroke-width:1.0;" x1="346.5381" x2="346.5381" y1="230.1094" y2="252.9141"/><polygon fill="#181818" points="342.5381,242.9141,346.5381,252.9141,350.5381,242.9141,346.5381,246.9141" style="stroke:#181818;stroke-width:1.0;"/><line style="stroke:#181818;stroke-width:1.0;" x1="232.5366" x2="232.5366" y1="151.9063" y2="217.3047"/><polygon fill="#181818" points="228.5366,207.3047,232.5366,217.3047,236.5366,207.3047,232.5366,211.3047" style="stroke:#181818;stroke-width:1.0;"/><!--SRC=[LP1HJiCm38RVUme_TW-xG46WQkhG9DYcTl0q2Pd6xInrpkIa4-80781xyCG1aDXDE0d9EZJjBKu-__bivr5zacILxRXctnim1EYu5Qpvy2Lh2NNJox60AM07lUjHsSBZLUXRl7WIqW6nGWwmzhn75t8kKMuW_VdEkxONF2SED91unRMGG6sb2IhUHX57ErICmV4UfhSZy9i0fUxmEKe0ifBg3RwXNYh_ldy0gLg5gbZcPRwQBURFJxF5_V5q5HgTjxk4EaUGYZqbjUo2n4LKHBDYovuLyjwmB_R1T2tfiYWVPbKLS-_AVBuQdKF5S9CaOZs1ShlnuM7oFrFSIiF2nheit8zXeeGcU8PPJxjoS3s-6JwpUcHoimqjqUr4AksiUXh8uZKMWovmnq4M3KODY0x97m00]--></g></svg>