<svg xmlns="http://www.w3.org/2000/svg" xmlns:xlink="http://www.w3.org/1999/xlink" contentStyleType="text/css" height="1393px" preserveAspectRatio="none" style="width:562px;height:1393px;background:#FFFFFF;" version="1.1" viewBox="0 0 562 1393" width="562px" zoomAndPan="magnify"><defs/><g><ellipse cx="277.3379" cy="20" fill="#222222" rx="10" ry="10" style="stroke:#222222;stroke-width:1.0;"/><rect fill="#F1F1F1" height="33.9688" rx="12.5" ry="12.5" style="stroke:#181818;stroke-width:0.5;" width="195.0664" x="179.8047" y="50"/><text fill="#000000" font-family="sans-serif" font-size="12" lengthAdjust="spacing" textLength="175.0664" x="189.8047" y="71.1387">Scheduler dispara job(job_id)</text><rect fill="#F1F1F1" height="33.9688" rx="12.5" ry="12.5" style="stroke:#181818;stroke-width:0.5;" width="257.6211" x="148.5273" y="103.9688"/><text fill="#000000" font-family="sans-serif" font-size="12" lengthAdjust="spacing" textLength="237.6211" x="158.5273" y="125.1074">PipelineExecution crear(state=running)</text><rect fill="#F1F1F1" height="33.9688" rx="12.5" ry="12.5" style="stroke:#181818;stroke-width:0.5;" width="230.9434" x="161.8662" y="157.9375"/><text fill="#000000" font-family="sans-serif" font-size="12" lengthAdjust="spacing" textLength="210.9434" x="171.8662" y="179.0762">Persistir via PipelineExecutionRepo</text><rect fill="#F1F1F1" height="33.9688" rx="12.5" ry="12.5" style="stroke:#181818;stroke-width:0.5;" width="220.8359" x="166.9199" y="211.9063"/><text fill="#000000" font-family="sans-serif" font-size="12" lengthAdjust="spacing" textLength="200.8359" x="176.9199" y="233.0449">Emitir AuditEvent(type=etl_start)</text><rect fill="none" height="356.5742" style="stroke:#000000;stroke-width:1.5;" width="308.3965" x="129.1396" y="255.875"/><path d="M189.2813,255.875 L189.2813,265.1719 L179.2813,275.1719 L129.1396,275.1719 " fill="none" style="stroke:#000000;stroke-width:1.5;"/><text fill="#000000" font-family="sans-serif" font-size="14" lengthAdjust="spacing" textLength="50.1416" x="132.1396" y="269.8701">Extract</text><rect fill="#F1F1F1" height="33.9688" rx="12.5" ry="12.5" style="stroke:#181818;stroke-width:0.5;" width="235.9883" x="159.3438" y="292.1719"/><text fill="#000000" font-family="sans-serif" font-size="12" lengthAdjust="spacing" textLength="215.9883" x="169.3438" y="313.3105">Conectar a fuentes (CDR, IVR, CRM)</text><rect fill="#F1F1F1" height="33.9688" rx="12.5" ry="12.5" style="stroke:#181818;stroke-width:0.5;" width="256.3965" x="149.1396" y="394.543"/><text fill="#000000" font-family="sans-serif" font-size="12" lengthAdjust="spacing" textLength="236.3965" x="159.1396" y="415.6816">state=failed, error=source_unavailable</text><rect fill="#F1F1F1" height="33.9688" rx="12.5" ry="12.5" style="stroke:#181818;stroke-width:0.5;" width="226.1328" x="164.2715" y="448.5117"/><text fill="#000000" font-family="sans-serif" font-size="12" lengthAdjust="spacing" textLength="206.1328" x="174.2715" y="469.6504">Emitir AuditEvent(type=etl_failed)</text><ellipse cx="277.3379" cy="513.4805" fill="none" rx="11" ry="11" style="stroke:#222222;stroke-width:1.0;"/><ellipse cx="277.3379" cy="513.4805" fill="#222222" rx="6" ry="6" style="stroke:#222222;stroke-width:1.0;"/><polygon fill="#F1F1F1" points="220.9495,346.1406,333.7263,346.1406,345.7263,358.1406,333.7263,370.1406,220.9495,370.1406,208.9495,358.1406,220.9495,346.1406" style="stroke:#181818;stroke-width:0.5;"/><text fill="#000000" font-family="sans-serif" font-size="11" lengthAdjust="spacing" textLength="13.7017" x="281.3379" y="380.3511">no</text><text fill="#000000" font-family="sans-serif" font-size="11" lengthAdjust="spacing" textLength="112.7769" x="220.9495" y="361.9487">fuentes disponibles?</text><text fill="#000000" font-family="sans-serif" font-size="11" lengthAdjust="spacing" textLength="8.7871" x="345.7263" y="355.5464">si</text><rect fill="#F1F1F1" height="33.9688" rx="12.5" ry="12.5" style="stroke:#181818;stroke-width:0.5;" width="159.8164" x="197.4297" y="566.4805"/><text fill="#000000" font-family="sans-serif" font-size="12" lengthAdjust="spacing" textLength="139.8164" x="207.4297" y="587.6191">Leer batch incremental</text><rect fill="none" height="331.9136" style="stroke:#000000;stroke-width:1.5;" width="486.3262" x="64.8647" y="622.4492"/><path d="M146.8062,622.4492 L146.8062,631.7461 L136.8062,641.7461 L64.8647,641.7461 " fill="none" style="stroke:#000000;stroke-width:1.5;"/><text fill="#000000" font-family="sans-serif" font-size="14" lengthAdjust="spacing" textLength="71.9414" x="67.8647" y="636.4443">Transform</text><rect fill="#F1F1F1" height="33.9688" rx="12.5" ry="12.5" style="stroke:#181818;stroke-width:0.5;" width="216.5703" x="169.0527" y="714.4565"/><text fill="#000000" font-family="sans-serif" font-size="12" lengthAdjust="spacing" textLength="196.5703" x="179.0527" y="735.5952">Aplicar mappings + validaciones</text><polygon fill="#F1F1F1" points="238.1746,768.4253,316.5012,768.4253,328.5012,780.4253,316.5012,792.4253,238.1746,792.4253,226.1746,780.4253,238.1746,768.4253" style="stroke:#181818;stroke-width:0.5;"/><text fill="#000000" font-family="sans-serif" font-size="11" lengthAdjust="spacing" textLength="78.3267" x="238.1746" y="784.2334">validacion ok?</text><text fill="#000000" font-family="sans-serif" font-size="11" lengthAdjust="spacing" textLength="13.7017" x="212.4729" y="777.8311">no</text><text fill="#000000" font-family="sans-serif" font-size="11" lengthAdjust="spacing" textLength="8.7871" x="328.5012" y="777.8311">si</text><rect fill="#F1F1F1" height="33.9688" rx="12.5" ry="12.5" style="stroke:#181818;stroke-width:0.5;" width="126.2832" x="108.8647" y="802.4253"/><text fill="#000000" font-family="sans-serif" font-size="12" lengthAdjust="spacing" textLength="106.2832" x="118.8647" y="823.564">Acumular errors[]</text><rect fill="#F1F1F1" height="33.9688" rx="12.5" ry="12.5" style="stroke:#181818;stroke-width:0.5;" width="126.3359" x="319.5015" y="802.4253"/><text fill="#000000" font-family="sans-serif" font-size="12" lengthAdjust="spacing" textLength="106.3359" x="329.5015" y="823.564">Producir Metric(s)</text><rect fill="#F1F1F1" height="33.9688" rx="12.5" ry="12.5" style="stroke:#181818;stroke-width:0.5;" width="255.043" x="255.1479" y="856.394"/><text fill="#000000" font-family="sans-serif" font-size="12" lengthAdjust="spacing" textLength="235.043" x="265.1479" y="877.5327">Actualizar MetricsCache(bucket, value)</text><polygon fill="#F1F1F1" points="277.3379,896.3628,289.3379,908.3628,277.3379,920.3628,265.3379,908.3628,277.3379,896.3628" style="stroke:#181818;stroke-width:0.5;"/><polygon fill="#F1F1F1" points="239.2998,658.7461,315.376,658.7461,327.376,670.7461,315.376,682.7461,239.2998,682.7461,227.2998,670.7461,239.2998,658.7461" style="stroke:#181818;stroke-width:0.5;"/><text fill="#000000" font-family="sans-serif" font-size="11" lengthAdjust="spacing" textLength="8.7871" x="281.3379" y="692.9565">si</text><text fill="#000000" font-family="sans-serif" font-size="11" lengthAdjust="spacing" textLength="76.0762" x="239.2998" y="674.5542">mas batches?</text><text fill="#000000" font-family="sans-serif" font-size="11" lengthAdjust="spacing" textLength="13.7017" x="213.5981" y="668.1519">no</text><rect fill="none" height="136.2344" style="stroke:#000000;stroke-width:1.5;" width="304.457" x="125.1094" y="964.3628"/><path d="M168.9404,964.3628 L168.9404,973.6597 L158.9404,983.6597 L125.1094,983.6597 " fill="none" style="stroke:#000000;stroke-width:1.5;"/><text fill="#000000" font-family="sans-serif" font-size="14" lengthAdjust="spacing" textLength="33.8311" x="128.1094" y="978.3579">Load</text><rect fill="#F1F1F1" height="33.9688" rx="12.5" ry="12.5" style="stroke:#181818;stroke-width:0.5;" width="180.1367" x="187.2695" y="1000.6597"/><text fill="#000000" font-family="sans-serif" font-size="12" lengthAdjust="spacing" textLength="160.1367" x="197.2695" y="1021.7983">Persistir Metric(s) en TSDB</text><rect fill="#F1F1F1" height="33.9688" rx="12.5" ry="12.5" style="stroke:#181818;stroke-width:0.5;" width="284.457" x="135.1094" y="1054.6284"/><text fill="#000000" font-family="sans-serif" font-size="12" lengthAdjust="spacing" textLength="264.457" x="145.1094" y="1075.7671">Refresh PermissionCache si schema cambio</text><polygon fill="#F1F1F1" points="237.4387,1120.5972,317.2371,1120.5972,329.2371,1132.5972,317.2371,1144.5972,237.4387,1144.5972,225.4387,1132.5972,237.4387,1120.5972" style="stroke:#181818;stroke-width:0.5;"/><text fill="#000000" font-family="sans-serif" font-size="11" lengthAdjust="spacing" textLength="79.7983" x="237.4387" y="1136.4053">errors[] vacio?</text><text fill="#000000" font-family="sans-serif" font-size="11" lengthAdjust="spacing" textLength="8.7871" x="216.6516" y="1130.0029">si</text><text fill="#000000" font-family="sans-serif" font-size="11" lengthAdjust="spacing" textLength="13.7017" x="329.2371" y="1130.0029">no</text><rect fill="#F1F1F1" height="33.9688" rx="12.5" ry="12.5" style="stroke:#181818;stroke-width:0.5;" width="124.1211" x="77.2168" y="1154.5972"/><text fill="#000000" font-family="sans-serif" font-size="12" lengthAdjust="spacing" textLength="104.1211" x="87.2168" y="1175.7358">state=completed</text><rect fill="#F1F1F1" height="33.9688" rx="12.5" ry="12.5" style="stroke:#181818;stroke-width:0.5;" width="256.5547" x="11" y="1208.5659"/><text fill="#000000" font-family="sans-serif" font-size="12" lengthAdjust="spacing" textLength="236.5547" x="21" y="1229.7046">Emitir AuditEvent(type=etl_completed)</text><rect fill="#F1F1F1" height="33.9688" rx="12.5" ry="12.5" style="stroke:#181818;stroke-width:0.5;" width="197.3574" x="316.7197" y="1154.5972"/><text fill="#000000" font-family="sans-serif" font-size="12" lengthAdjust="spacing" textLength="177.3574" x="326.7197" y="1175.7358">state=completed_with_errors</text><rect fill="#F1F1F1" height="47.9375" rx="12.5" ry="12.5" style="stroke:#181818;stroke-width:0.5;" width="255.6875" x="287.5547" y="1208.5659"/><text fill="#000000" font-family="sans-serif" font-size="12" lengthAdjust="spacing" textLength="235.6875" x="297.5547" y="1229.7046">Emitir AuditEvent(type=etl_completed,</text><text fill="#000000" font-family="sans-serif" font-size="12" lengthAdjust="spacing" textLength="153.832" x="297.5547" y="1243.6733">errors_count=len(errors))</text><polygon fill="#F1F1F1" points="277.3379,1262.5034,289.3379,1274.5034,277.3379,1286.5034,265.3379,1274.5034,277.3379,1262.5034" style="stroke:#181818;stroke-width:0.5;"/><rect fill="#F1F1F1" height="33.9688" rx="12.5" ry="12.5" style="stroke:#181818;stroke-width:0.5;" width="306.3652" x="124.1553" y="1306.5034"/><text fill="#000000" font-family="sans-serif" font-size="12" lengthAdjust="spacing" textLength="286.3652" x="134.1553" y="1327.6421">PipelineExecutionRepo.update(state, end_time)</text><ellipse cx="277.3379" cy="1371.4722" fill="none" rx="11" ry="11" style="stroke:#222222;stroke-width:1.0;"/><ellipse cx="277.3379" cy="1371.4722" fill="#222222" rx="6" ry="6" style="stroke:#222222;stroke-width:1.0;"/><line style="stroke:#181818;stroke-width:1.0;" x1="277.3379" x2="277.3379" y1="30" y2="50"/><polygon fill="#181818" points="273.3379,40,277.3379,50,281.3379,40,277.3379,44" style="stroke:#181818;stroke-width:1.0;"/><line style="stroke:#181818;stroke-width:1.0;" x1="277.3379" x2="277.3379" y1="83.9688" y2="103.9688"/><polygon fill="#181818" points="273.3379,93.9688,277.3379,103.9688,281.3379,93.9688,277.3379,97.9688" style="stroke:#181818;stroke-width:1.0;"/><line style="stroke:#181818;stroke-width:1.0;" x1="277.3379" x2="277.3379" y1="137.9375" y2="157.9375"/><polygon fill="#181818" points="273.3379,147.9375,277.3379,157.9375,281.3379,147.9375,277.3379,151.9375" style="stroke:#181818;stroke-width:1.0;"/><line style="stroke:#181818;stroke-width:1.0;" x1="277.3379" x2="277.3379" y1="191.9063" y2="211.9063"/><polygon fill="#181818" points="273.3379,201.9063,277.3379,211.9063,281.3379,201.9063,277.3379,205.9063" style="stroke:#181818;stroke-width:1.0;"/><line style="stroke:#181818;stroke-width:1.0;" x1="277.3379" x2="277.3379" y1="428.5117" y2="448.5117"/><polygon fill="#181818" points="273.3379,438.5117,277.3379,448.5117,281.3379,438.5117,277.3379,442.5117" style="stroke:#181818;stroke-width:1.0;"/><line style="stroke:#181818;stroke-width:1.0;" x1="277.3379" x2="277.3379" y1="482.4805" y2="502.4805"/><polygon fill="#181818" points="273.3379,492.4805,277.3379,502.4805,281.3379,492.4805,277.3379,496.4805" style="stroke:#181818;stroke-width:1.0;"/><line style="stroke:#181818;stroke-width:1.0;" x1="277.3379" x2="277.3379" y1="370.1406" y2="394.543"/><polygon fill="#181818" points="273.3379,384.543,277.3379,394.543,281.3379,384.543,277.3379,388.543" style="stroke:#181818;stroke-width:1.0;"/><line style="stroke:#181818;stroke-width:1.0;" x1="345.7263" x2="415.5361" y1="358.1406" y2="358.1406"/><polygon fill="#181818" points="411.5361,446.5117,415.5361,456.5117,419.5361,446.5117,415.5361,450.5117" style="stroke:#181818;stroke-width:1.0;"/><line style="stroke:#181818;stroke-width:1.0;" x1="415.5361" x2="415.5361" y1="358.1406" y2="546.4805"/><line style="stroke:#181818;stroke-width:1.0;" x1="415.5361" x2="277.3379" y1="546.4805" y2="546.4805"/><line style="stroke:#181818;stroke-width:1.0;" x1="277.3379" x2="277.3379" y1="546.4805" y2="566.4805"/><polygon fill="#181818" points="273.3379,556.4805,277.3379,566.4805,281.3379,556.4805,277.3379,560.4805" style="stroke:#181818;stroke-width:1.0;"/><line style="stroke:#181818;stroke-width:1.0;" x1="277.3379" x2="277.3379" y1="326.1406" y2="346.1406"/><polygon fill="#181818" points="273.3379,336.1406,277.3379,346.1406,281.3379,336.1406,277.3379,340.1406" style="stroke:#181818;stroke-width:1.0;"/><line style="stroke:#181818;stroke-width:1.0;" x1="277.3379" x2="277.3379" y1="245.875" y2="292.1719"/><polygon fill="#181818" points="273.3379,282.1719,277.3379,292.1719,281.3379,282.1719,277.3379,286.1719" style="stroke:#181818;stroke-width:1.0;"/><line style="stroke:#181818;stroke-width:1.0;" x1="382.6694" x2="382.6694" y1="836.394" y2="856.394"/><polygon fill="#181818" points="378.6694,846.394,382.6694,856.394,386.6694,846.394,382.6694,850.394" style="stroke:#181818;stroke-width:1.0;"/><line style="stroke:#181818;stroke-width:1.0;" x1="226.1746" x2="172.0063" y1="780.4253" y2="780.4253"/><line style="stroke:#181818;stroke-width:1.0;" x1="172.0063" x2="172.0063" y1="780.4253" y2="802.4253"/><polygon fill="#181818" points="168.0063,792.4253,172.0063,802.4253,176.0063,792.4253,172.0063,796.4253" style="stroke:#181818;stroke-width:1.0;"/><line style="stroke:#181818;stroke-width:1.0;" x1="328.5012" x2="382.6694" y1="780.4253" y2="780.4253"/><line style="stroke:#181818;stroke-width:1.0;" x1="382.6694" x2="382.6694" y1="780.4253" y2="802.4253"/><polygon fill="#181818" points="378.6694,792.4253,382.6694,802.4253,386.6694,792.4253,382.6694,796.4253" style="stroke:#181818;stroke-width:1.0;"/><line style="stroke:#181818;stroke-width:1.0;" x1="172.0063" x2="172.0063" y1="836.394" y2="908.3628"/><line style="stroke:#181818;stroke-width:1.0;" x1="172.0063" x2="265.3379" y1="908.3628" y2="908.3628"/><polygon fill="#181818" points="255.3379,904.3628,265.3379,908.3628,255.3379,912.3628,259.3379,908.3628" style="stroke:#181818;stroke-width:1.0;"/><line style="stroke:#181818;stroke-width:1.0;" x1="382.6694" x2="382.6694" y1="890.3628" y2="908.3628"/><line style="stroke:#181818;stroke-width:1.0;" x1="382.6694" x2="289.3379" y1="908.3628" y2="908.3628"/><polygon fill="#181818" points="299.3379,904.3628,289.3379,908.3628,299.3379,912.3628,295.3379,908.3628" style="stroke:#181818;stroke-width:1.0;"/><line style="stroke:#181818;stroke-width:1.0;" x1="277.3379" x2="277.3379" y1="748.4253" y2="768.4253"/><polygon fill="#181818" points="273.3379,758.4253,277.3379,768.4253,281.3379,758.4253,277.3379,762.4253" style="stroke:#181818;stroke-width:1.0;"/><line style="stroke:#181818;stroke-width:1.0;" x1="277.3379" x2="277.3379" y1="682.7461" y2="714.4565"/><polygon fill="#181818" points="273.3379,704.4565,277.3379,714.4565,281.3379,704.4565,277.3379,708.4565" style="stroke:#181818;stroke-width:1.0;"/><line style="stroke:#181818;stroke-width:1.0;" x1="277.3379" x2="277.3379" y1="920.3628" y2="930.3628"/><line style="stroke:#181818;stroke-width:1.0;" x1="277.3379" x2="532.1909" y1="930.3628" y2="930.3628"/><polygon fill="#181818" points="528.1909,809.0073,532.1909,799.0073,536.1909,809.0073,532.1909,805.0073" style="stroke:#181818;stroke-width:1.0;"/><line style="stroke:#181818;stroke-width:1.0;" x1="532.1909" x2="532.1909" y1="670.7461" y2="930.3628"/><line style="stroke:#181818;stroke-width:1.0;" x1="532.1909" x2="327.376" y1="670.7461" y2="670.7461"/><polygon fill="#181818" points="337.376,666.7461,327.376,670.7461,337.376,674.7461,333.376,670.7461" style="stroke:#181818;stroke-width:1.0;"/><line style="stroke:#181818;stroke-width:1.0;" x1="227.2998" x2="86.8647" y1="670.7461" y2="670.7461"/><polygon fill="#181818" points="82.8647,795.0073,86.8647,805.0073,90.8647,795.0073,86.8647,799.0073" style="stroke:#181818;stroke-width:1.0;"/><line style="stroke:#181818;stroke-width:1.0;" x1="86.8647" x2="86.8647" y1="670.7461" y2="942.3628"/><line style="stroke:#181818;stroke-width:1.0;" x1="86.8647" x2="277.3379" y1="942.3628" y2="942.3628"/><line style="stroke:#181818;stroke-width:1.0;" x1="277.3379" x2="277.3379" y1="942.3628" y2="1000.6597"/><polygon fill="#181818" points="273.3379,990.6597,277.3379,1000.6597,281.3379,990.6597,277.3379,994.6597" style="stroke:#181818;stroke-width:1.0;"/><line style="stroke:#181818;stroke-width:1.0;" x1="277.3379" x2="277.3379" y1="600.4492" y2="658.7461"/><polygon fill="#181818" points="273.3379,648.7461,277.3379,658.7461,281.3379,648.7461,277.3379,652.7461" style="stroke:#181818;stroke-width:1.0;"/><line style="stroke:#181818;stroke-width:1.0;" x1="277.3379" x2="277.3379" y1="1034.6284" y2="1054.6284"/><polygon fill="#181818" points="273.3379,1044.6284,277.3379,1054.6284,281.3379,1044.6284,277.3379,1048.6284" style="stroke:#181818;stroke-width:1.0;"/><line style="stroke:#181818;stroke-width:1.0;" x1="139.2773" x2="139.2773" y1="1188.5659" y2="1208.5659"/><polygon fill="#181818" points="135.2773,1198.5659,139.2773,1208.5659,143.2773,1198.5659,139.2773,1202.5659" style="stroke:#181818;stroke-width:1.0;"/><line style="stroke:#181818;stroke-width:1.0;" x1="415.3984" x2="415.3984" y1="1188.5659" y2="1208.5659"/><polygon fill="#181818" points="411.3984,1198.5659,415.3984,1208.5659,419.3984,1198.5659,415.3984,1202.5659" style="stroke:#181818;stroke-width:1.0;"/><line style="stroke:#181818;stroke-width:1.0;" x1="225.4387" x2="139.2773" y1="1132.5972" y2="1132.5972"/><line style="stroke:#181818;stroke-width:1.0;" x1="139.2773" x2="139.2773" y1="1132.5972" y2="1154.5972"/><polygon fill="#181818" points="135.2773,1144.5972,139.2773,1154.5972,143.2773,1144.5972,139.2773,1148.5972" style="stroke:#181818;stroke-width:1.0;"/><line style="stroke:#181818;stroke-width:1.0;" x1="329.2371" x2="415.3984" y1="1132.5972" y2="1132.5972"/><line style="stroke:#181818;stroke-width:1.0;" x1="415.3984" x2="415.3984" y1="1132.5972" y2="1154.5972"/><polygon fill="#181818" points="411.3984,1144.5972,415.3984,1154.5972,419.3984,1144.5972,415.3984,1148.5972" style="stroke:#181818;stroke-width:1.0;"/><line style="stroke:#181818;stroke-width:1.0;" x1="139.2773" x2="139.2773" y1="1242.5347" y2="1274.5034"/><line style="stroke:#181818;stroke-width:1.0;" x1="139.2773" x2="265.3379" y1="1274.5034" y2="1274.5034"/><polygon fill="#181818" points="255.3379,1270.5034,265.3379,1274.5034,255.3379,1278.5034,259.3379,1274.5034" style="stroke:#181818;stroke-width:1.0;"/><line style="stroke:#181818;stroke-width:1.0;" x1="415.3984" x2="415.3984" y1="1256.5034" y2="1274.5034"/><line style="stroke:#181818;stroke-width:1.0;" x1="415.3984" x2="289.3379" y1="1274.5034" y2="1274.5034"/><polygon fill="#181818" points="299.3379,1270.5034,289.3379,1274.5034,299.3379,1278.5034,295.3379,1274.5034" style="stroke:#181818;stroke-width:1.0;"/><line style="stroke:#181818;stroke-width:1.0;" x1="277.3379" x2="277.3379" y1="1088.5972" y2="1120.5972"/><polygon fill="#181818" points="273.3379,1110.5972,277.3379,1120.5972,281.3379,1110.5972,277.3379,1114.5972" style="stroke:#181818;stroke-width:1.0;"/><line style="stroke:#181818;stroke-width:1.0;" x1="277.3379" x2="277.3379" y1="1286.5034" y2="1306.5034"/><polygon fill="#181818" points="273.3379,1296.5034,277.3379,1306.5034,281.3379,1296.5034,277.3379,1300.5034" style="stroke:#181818;stroke-width:1.0;"/><line style="stroke:#181818;stroke-width:1.0;" x1="277.3379" x2="277.3379" y1="1340.4722" y2="1360.4722"/><polygon fill="#181818" points="273.3379,1350.4722,277.3379,1360.4722,281.3379,1350.4722,277.3379,1354.4722" style="stroke:#181818;stroke-width:1.0;"/><!--SRC=[ZLFHQXin47ptL-pZcPf-W8qfgUE7GWB12NqfvP1rUxrjTDAXNJbfI_-zAybsagQ4FjXtw6PcPqOIYuaoMzxQ0RlaC497F9beu7lOD_fhgPklPiiRcj2Hn-qZsYGKFDY89ZOiHd0Ta_ValnKWHYOMYd0W0wzeEvo2ehOZPSX5waYs1_JIo8y9roYkvMn8bMRgGgYCsZvAD5RWrmnWkGaUhMB0G9-KYGpDvdAtW4-VzM-pkrOk0FNGd3xdHC7JtY5_c8CCwA7nOQuebQi1UaCEkmLWZ26kEQHeiKtU77JTA75LmM_OhWhp2cG9axwWOuI6AOz2tr6V_L-XbhmtOWSWhoMEAcFSQlRxUUAxQ3pt8OubyyEWsj2CXYknv20-IQlenUJ8QYUZcIRT28PtS32EEcDL3RcwofqyhKAuVzL6Lh9fJ4wbIXNyvMlbFezIS3SnTCbg6TSeaMp3n-X5GfAE-MbE7tbZr7IpJ_OUPP6T9Jp2JxNeyvWoUtdHnLKmNTtwfxDr7gf4kBkz_9ZLbZli8_80YXk9MSbbC301wtCqOCsufr3ApcsSCgebhUHSHurvF1esZ9D3mQwCUEC4d84QhTPLQ_rRftqW6Tew-hyr5xcZGj6rv6Njq1_jp_EyKkC_hcc-R-_JrAc3UbSNkUfMQCmxKCxf7m00]--></g></svg>