<svg xmlns="http://www.w3.org/2000/svg" xmlns:xlink="http://www.w3.org/1999/xlink" contentStyleType="text/css" height="365px" preserveAspectRatio="none" style="width:1690px;height:365px;background:#FFFFFF;" version="1.1" viewBox="0 0 1690 365" width="1690px" zoomAndPan="magnify"><defs/><g><!--class Usuario--><g id="elem_Usuario"><rect codeLine="2" fill="#F1F1F1" height="194.6719" id="Usuario" rx="2.5" ry="2.5" style="stroke:#181818;stroke-width:0.5;" width="257.1367" x="686" y="7"/><ellipse cx="783.7163" cy="23" fill="#ADD1B2" rx="11" ry="11" style="stroke:#181818;stroke-width:1.0;"/><path d="M786.6851,28.6406 Q786.1069,28.9375 785.4663,29.0781 Q784.8257,29.2344 784.1226,29.2344 Q781.6226,29.2344 780.2944,27.5938 Q778.9819,25.9375 778.9819,22.8125 Q778.9819,19.6875 780.2944,18.0313 Q781.6226,16.375 784.1226,16.375 Q784.8257,16.375 785.4663,16.5313 Q786.1226,16.6875 786.6851,16.9844 L786.6851,19.7031 Q786.0601,19.125 785.4663,18.8594 Q784.8726,18.5781 784.2476,18.5781 Q782.9038,18.5781 782.2163,19.6563 Q781.5288,20.7188 781.5288,22.8125 Q781.5288,24.9063 782.2163,25.9844 Q782.9038,27.0469 784.2476,27.0469 Q784.8726,27.0469 785.4663,26.7813 Q786.0601,26.5 786.6851,25.9219 L786.6851,28.6406 Z " fill="#000000"/><text fill="#000000" font-family="sans-serif" font-size="14" lengthAdjust="spacing" textLength="53.2041" x="804.2163" y="27.8467">Usuario</text><line style="stroke:#181818;stroke-width:0.5;" x1="687" x2="942.1367" y1="39" y2="39"/><rect fill="none" height="6" style="stroke:#C82930;stroke-width:1.0;" width="6" x="694" y="49.6484"/><text fill="#000000" font-family="sans-serif" font-size="14" lengthAdjust="spacing" textLength="76.7539" x="706" y="55.9951">id : Integer</text><rect fill="none" height="6" style="stroke:#C82930;stroke-width:1.0;" width="6" x="694" y="65.9453"/><text fill="#000000" font-family="sans-serif" font-size="14" lengthAdjust="spacing" textLength="94.0078" x="706" y="72.292">email : String</text><rect fill="none" height="6" style="stroke:#C82930;stroke-width:1.0;" width="6" x="694" y="82.2422"/><text fill="#000000" font-family="sans-serif" font-size="14" lengthAdjust="spacing" textLength="162.7295" x="706" y="88.5889">password_hash : String</text><rect fill="none" height="6" style="stroke:#C82930;stroke-width:1.0;" width="6" x="694" y="98.5391"/><text fill="#000000" font-family="sans-serif" font-size="14" lengthAdjust="spacing" textLength="131.0449" x="706" y="104.8857">is_active : Boolean</text><rect fill="none" height="6" style="stroke:#C82930;stroke-width:1.0;" width="6" x="694" y="114.8359"/><text fill="#000000" font-family="sans-serif" font-size="14" lengthAdjust="spacing" textLength="195.8633" x="706" y="121.1826">segmento : SegmentoDatos</text><rect fill="none" height="6" style="stroke:#C82930;stroke-width:1.0;" width="6" x="694" y="131.1328"/><text fill="#000000" font-family="sans-serif" font-size="14" lengthAdjust="spacing" textLength="156.4746" x="706" y="137.4795">created_at : DateTime</text><line style="stroke:#181818;stroke-width:0.5;" x1="687" x2="942.1367" y1="144.7813" y2="144.7813"/><ellipse cx="697" cy="158.4297" fill="#84BE84" rx="3" ry="3" style="stroke:#038048;stroke-width:1.0;"/><text fill="#000000" font-family="sans-serif" font-size="14" lengthAdjust="spacing" textLength="229.5576" x="706" y="161.7764">login(email, password) : Boolean</text><ellipse cx="697" cy="174.7266" fill="#84BE84" rx="3" ry="3" style="stroke:#038048;stroke-width:1.0;"/><text fill="#000000" font-family="sans-serif" font-size="14" lengthAdjust="spacing" textLength="98.4375" x="706" y="178.0732">logout() : void</text><ellipse cx="697" cy="191.0234" fill="#84BE84" rx="3" ry="3" style="stroke:#038048;stroke-width:1.0;"/><text fill="#000000" font-family="sans-serif" font-size="14" lengthAdjust="spacing" textLength="231.1367" x="706" y="194.3701">changePassword(old, new) : void</text></g><!--class Operador--><g id="elem_Operador"><rect codeLine="14" fill="#F1F1F1" height="80.5938" id="Operador" rx="2.5" ry="2.5" style="stroke:#181818;stroke-width:0.5;" width="263.043" x="7" y="270"/><ellipse cx="101.2402" cy="286" fill="#ADD1B2" rx="11" ry="11" style="stroke:#181818;stroke-width:1.0;"/><path d="M104.209,291.6406 Q103.6309,291.9375 102.9902,292.0781 Q102.3496,292.2344 101.6465,292.2344 Q99.1465,292.2344 97.8184,290.5938 Q96.5059,288.9375 96.5059,285.8125 Q96.5059,282.6875 97.8184,281.0313 Q99.1465,279.375 101.6465,279.375 Q102.3496,279.375 102.9902,279.5313 Q103.6465,279.6875 104.209,279.9844 L104.209,282.7031 Q103.584,282.125 102.9902,281.8594 Q102.3965,281.5781 101.7715,281.5781 Q100.4277,281.5781 99.7402,282.6563 Q99.0527,283.7188 99.0527,285.8125 Q99.0527,287.9063 99.7402,288.9844 Q100.4277,290.0469 101.7715,290.0469 Q102.3965,290.0469 102.9902,289.7813 Q103.584,289.5 104.209,288.9219 L104.209,291.6406 Z " fill="#000000"/><text fill="#000000" font-family="sans-serif" font-size="14" lengthAdjust="spacing" textLength="66.0625" x="121.7402" y="290.8467">Operador</text><line style="stroke:#181818;stroke-width:0.5;" x1="8" x2="269.043" y1="302" y2="302"/><line style="stroke:#181818;stroke-width:0.5;" x1="8" x2="269.043" y1="310" y2="310"/><ellipse cx="18" cy="323.6484" fill="#84BE84" rx="3" ry="3" style="stroke:#038048;stroke-width:1.0;"/><text fill="#000000" font-family="sans-serif" font-size="14" lengthAdjust="spacing" textLength="199.5957" x="27" y="326.9951">verDashboard() : Dashboard</text><ellipse cx="18" cy="339.9453" fill="#84BE84" rx="3" ry="3" style="stroke:#038048;stroke-width:1.0;"/><text fill="#000000" font-family="sans-serif" font-size="14" lengthAdjust="spacing" textLength="237.043" x="27" y="343.292">verAlertasActivas() : List&lt;Alerta&gt;</text></g><!--class Supervisor--><g id="elem_Supervisor"><rect codeLine="19" fill="#F1F1F1" height="96.8906" id="Supervisor" rx="2.5" ry="2.5" style="stroke:#181818;stroke-width:0.5;" width="308.6934" x="305" y="262"/><ellipse cx="417.6938" cy="278" fill="#ADD1B2" rx="11" ry="11" style="stroke:#181818;stroke-width:1.0;"/><path d="M420.6626,283.6406 Q420.0845,283.9375 419.4438,284.0781 Q418.8032,284.2344 418.1001,284.2344 Q415.6001,284.2344 414.272,282.5938 Q412.9595,280.9375 412.9595,277.8125 Q412.9595,274.6875 414.272,273.0313 Q415.6001,271.375 418.1001,271.375 Q418.8032,271.375 419.4438,271.5313 Q420.1001,271.6875 420.6626,271.9844 L420.6626,274.7031 Q420.0376,274.125 419.4438,273.8594 Q418.8501,273.5781 418.2251,273.5781 Q416.8813,273.5781 416.1938,274.6563 Q415.5063,275.7188 415.5063,277.8125 Q415.5063,279.9063 416.1938,280.9844 Q416.8813,282.0469 418.2251,282.0469 Q418.8501,282.0469 419.4438,281.7813 Q420.0376,281.5 420.6626,280.9219 L420.6626,283.6406 Z " fill="#000000"/><text fill="#000000" font-family="sans-serif" font-size="14" lengthAdjust="spacing" textLength="74.8057" x="438.1938" y="282.8467">Supervisor</text><line style="stroke:#181818;stroke-width:0.5;" x1="306" x2="612.6934" y1="294" y2="294"/><rect fill="none" height="6" style="stroke:#C82930;stroke-width:1.0;" width="6" x="313" y="304.6484"/><text fill="#000000" font-family="sans-serif" font-size="14" lengthAdjust="spacing" textLength="164.1992" x="325" y="310.9951">centros : List&lt;Integer&gt;</text><line style="stroke:#181818;stroke-width:0.5;" x1="306" x2="612.6934" y1="318.2969" y2="318.2969"/><ellipse cx="316" cy="331.9453" fill="#84BE84" rx="3" ry="3" style="stroke:#038048;stroke-width:1.0;"/><text fill="#000000" font-family="sans-serif" font-size="14" lengthAdjust="spacing" textLength="282.6934" x="325" y="335.292">verReportesHistoricos() : List&lt;Reporte&gt;</text><ellipse cx="316" cy="348.2422" fill="#84BE84" rx="3" ry="3" style="stroke:#038048;stroke-width:1.0;"/><text fill="#000000" font-family="sans-serif" font-size="14" lengthAdjust="spacing" textLength="178.9854" x="325" y="351.5889">reconocerAlerta(id) : void</text></g><!--class AdminAcceso--><g id="elem_AdminAcceso"><rect codeLine="25" fill="#F1F1F1" height="96.8906" id="AdminAcceso" rx="2.5" ry="2.5" style="stroke:#181818;stroke-width:0.5;" width="331.0947" x="649" y="262"/><ellipse cx="763.1431" cy="278" fill="#ADD1B2" rx="11" ry="11" style="stroke:#181818;stroke-width:1.0;"/><path d="M766.1118,283.6406 Q765.5337,283.9375 764.8931,284.0781 Q764.2524,284.2344 763.5493,284.2344 Q761.0493,284.2344 759.7212,282.5938 Q758.4087,280.9375 758.4087,277.8125 Q758.4087,274.6875 759.7212,273.0313 Q761.0493,271.375 763.5493,271.375 Q764.2524,271.375 764.8931,271.5313 Q765.5493,271.6875 766.1118,271.9844 L766.1118,274.7031 Q765.4868,274.125 764.8931,273.8594 Q764.2993,273.5781 763.6743,273.5781 Q762.3306,273.5781 761.6431,274.6563 Q760.9556,275.7188 760.9556,277.8125 Q760.9556,279.9063 761.6431,280.9844 Q762.3306,282.0469 763.6743,282.0469 Q764.2993,282.0469 764.8931,281.7813 Q765.4868,281.5 766.1118,280.9219 L766.1118,283.6406 Z " fill="#000000"/><text fill="#000000" font-family="sans-serif" font-size="14" lengthAdjust="spacing" textLength="94.3086" x="783.6431" y="282.8467">AdminAcceso</text><line style="stroke:#181818;stroke-width:0.5;" x1="650" x2="979.0947" y1="294" y2="294"/><line style="stroke:#181818;stroke-width:0.5;" x1="650" x2="979.0947" y1="302" y2="302"/><ellipse cx="660" cy="315.6484" fill="#84BE84" rx="3" ry="3" style="stroke:#038048;stroke-width:1.0;"/><text fill="#000000" font-family="sans-serif" font-size="14" lengthAdjust="spacing" textLength="305.0947" x="669" y="318.9951">asignarFunciones(usuario, funciones) : void</text><ellipse cx="660" cy="331.9453" fill="#84BE84" rx="3" ry="3" style="stroke:#038048;stroke-width:1.0;"/><text fill="#000000" font-family="sans-serif" font-size="14" lengthAdjust="spacing" textLength="290.4521" x="669" y="335.292">asignarAgrupador(usuario, AGR_id) : void</text><ellipse cx="660" cy="348.2422" fill="#84BE84" rx="3" ry="3" style="stroke:#038048;stroke-width:1.0;"/><text fill="#000000" font-family="sans-serif" font-size="14" lengthAdjust="spacing" textLength="254.8984" x="669" y="351.5889">concederPermisoTemporal(...) : void</text></g><!--class AdminPipeline--><g id="elem_AdminPipeline"><rect codeLine="31" fill="#F1F1F1" height="80.5938" id="AdminPipeline" rx="2.5" ry="2.5" style="stroke:#181818;stroke-width:0.5;" width="289.8398" x="1015.5" y="270"/><ellipse cx="1106.189" cy="286" fill="#ADD1B2" rx="11" ry="11" style="stroke:#181818;stroke-width:1.0;"/><path d="M1109.1577,291.6406 Q1108.5796,291.9375 1107.939,292.0781 Q1107.2983,292.2344 1106.5952,292.2344 Q1104.0952,292.2344 1102.7671,290.5938 Q1101.4546,288.9375 1101.4546,285.8125 Q1101.4546,282.6875 1102.7671,281.0313 Q1104.0952,279.375 1106.5952,279.375 Q1107.2983,279.375 1107.939,279.5313 Q1108.5952,279.6875 1109.1577,279.9844 L1109.1577,282.7031 Q1108.5327,282.125 1107.939,281.8594 Q1107.3452,281.5781 1106.7202,281.5781 Q1105.3765,281.5781 1104.689,282.6563 Q1104.0015,283.7188 1104.0015,285.8125 Q1104.0015,287.9063 1104.689,288.9844 Q1105.3765,290.0469 1106.7202,290.0469 Q1107.3452,290.0469 1107.939,289.7813 Q1108.5327,289.5 1109.1577,288.9219 L1109.1577,291.6406 Z " fill="#000000"/><text fill="#000000" font-family="sans-serif" font-size="14" lengthAdjust="spacing" textLength="99.9619" x="1126.689" y="290.8467">AdminPipeline</text><line style="stroke:#181818;stroke-width:0.5;" x1="1016.5" x2="1304.3398" y1="302" y2="302"/><line style="stroke:#181818;stroke-width:0.5;" x1="1016.5" x2="1304.3398" y1="310" y2="310"/><ellipse cx="1026.5" cy="323.6484" fill="#84BE84" rx="3" ry="3" style="stroke:#038048;stroke-width:1.0;"/><text fill="#000000" font-family="sans-serif" font-size="14" lengthAdjust="spacing" textLength="195.8223" x="1035.5" y="326.9951">supervisarETL() : EstadoETL</text><ellipse cx="1026.5" cy="339.9453" fill="#84BE84" rx="3" ry="3" style="stroke:#038048;stroke-width:1.0;"/><text fill="#000000" font-family="sans-serif" font-size="14" lengthAdjust="spacing" textLength="263.8398" x="1035.5" y="343.292">solicitarReintento(ejecucion_id) : void</text></g><!--class Auditor--><g id="elem_Auditor"><rect codeLine="36" fill="#F1F1F1" height="80.5938" id="Auditor" rx="2.5" ry="2.5" style="stroke:#181818;stroke-width:0.5;" width="342.8184" x="1341" y="270"/><ellipse cx="1482.6406" cy="286" fill="#ADD1B2" rx="11" ry="11" style="stroke:#181818;stroke-width:1.0;"/><path d="M1485.6094,291.6406 Q1485.0313,291.9375 1484.3906,292.0781 Q1483.75,292.2344 1483.0469,292.2344 Q1480.5469,292.2344 1479.2188,290.5938 Q1477.9063,288.9375 1477.9063,285.8125 Q1477.9063,282.6875 1479.2188,281.0313 Q1480.5469,279.375 1483.0469,279.375 Q1483.75,279.375 1484.3906,279.5313 Q1485.0469,279.6875 1485.6094,279.9844 L1485.6094,282.7031 Q1484.9844,282.125 1484.3906,281.8594 Q1483.7969,281.5781 1483.1719,281.5781 Q1481.8281,281.5781 1481.1406,282.6563 Q1480.4531,283.7188 1480.4531,285.8125 Q1480.4531,287.9063 1481.1406,288.9844 Q1481.8281,290.0469 1483.1719,290.0469 Q1483.7969,290.0469 1484.3906,289.7813 Q1484.9844,289.5 1485.6094,288.9219 L1485.6094,291.6406 Z " fill="#000000"/><text fill="#000000" font-family="sans-serif" font-size="14" lengthAdjust="spacing" textLength="51.0371" x="1503.1406" y="290.8467">Auditor</text><line style="stroke:#181818;stroke-width:0.5;" x1="1342" x2="1682.8184" y1="302" y2="302"/><line style="stroke:#181818;stroke-width:0.5;" x1="1342" x2="1682.8184" y1="310" y2="310"/><ellipse cx="1352" cy="323.6484" fill="#84BE84" rx="3" ry="3" style="stroke:#038048;stroke-width:1.0;"/><text fill="#000000" font-family="sans-serif" font-size="14" lengthAdjust="spacing" textLength="316.8184" x="1361" y="326.9951">consultarAuditoria(filtros) : List&lt;EventoAud&gt;</text><ellipse cx="1352" cy="339.9453" fill="#84BE84" rx="3" ry="3" style="stroke:#038048;stroke-width:1.0;"/><text fill="#000000" font-family="sans-serif" font-size="14" lengthAdjust="spacing" textLength="273.3281" x="1361" y="343.292">generarReporteCompliance() : Reporte</text></g><g id="elem_GMN13"><path d="M978.5,54 L978.5,100.5 L943.1,104.5 L978.5,108.5 L978.5,154.7969 A0,0 0 0 0 978.5,154.7969 L1208.2173,154.7969 A0,0 0 0 0 1208.2173,154.7969 L1208.2173,64 L1198.2173,54 L978.5,54 A0,0 0 0 0 978.5,54 " fill="#FEFFDD" style="stroke:#181818;stroke-width:0.5;"/><path d="M1198.2173,54 L1198.2173,64 L1208.2173,64 L1198.2173,54 " fill="#FEFFDD" style="stroke:#181818;stroke-width:0.5;"/><text fill="#000000" font-family="sans-serif" font-size="13" lengthAdjust="spacing" textLength="193.5083" x="984.5" y="71.0669">Herencia: cada rol "es un tipo</text><text fill="#000000" font-family="sans-serif" font-size="13" lengthAdjust="spacing" textLength="181.0732" x="984.5" y="86.1997">de" Usuario. Todos heredan</text><text fill="#000000" font-family="sans-serif" font-size="13" lengthAdjust="spacing" textLength="105.46" x="984.5" y="101.3325">login(), logout(),</text><text fill="#000000" font-family="sans-serif" font-size="13" lengthAdjust="spacing" textLength="208.7173" x="984.5" y="116.4653">changePassword(). El segmento</text><text fill="#000000" font-family="sans-serif" font-size="13" lengthAdjust="spacing" textLength="173.7607" x="984.5" y="131.5981">restringe los datos visibles</text><text fill="#000000" font-family="sans-serif" font-size="13" lengthAdjust="spacing" textLength="63.54" x="984.5" y="146.731">(BR_012).</text></g><!--reverse link Usuario to Operador--><g id="link_Usuario_Operador"><path codeLine="41" d="M668.6843,147.9547 C561.8443,179.2147 423.19,220.23 287.5,262 C279.2,264.56 270.64,267.22 262.03,269.91 " fill="none" id="Usuario-backto-Operador" style="stroke:#181818;stroke-width:1.0;"/><polygon fill="none" points="685.96,142.9,666.9994,142.1961,670.3692,153.7132,685.96,142.9" style="stroke:#181818;stroke-width:1.0;"/></g><!--reverse link Usuario to Supervisor--><g id="link_Usuario_Supervisor"><path codeLine="42" d="M670.2234,188.4084 C622.4034,215.8884 585.06,237.34 542.41,261.86 " fill="none" id="Usuario-backto-Supervisor" style="stroke:#181818;stroke-width:1.0;"/><polygon fill="none" points="685.83,179.44,667.2339,183.2062,673.2128,193.6106,685.83,179.44" style="stroke:#181818;stroke-width:1.0;"/></g><!--reverse link Usuario to AdminAcceso--><g id="link_Usuario_AdminAcceso"><path codeLine="43" d="M814.5,220.12 C814.5,240.93 814.5,244.03 814.5,261.95 " fill="none" id="Usuario-backto-AdminAcceso" style="stroke:#181818;stroke-width:1.0;"/><polygon fill="none" points="814.5,202.12,808.5,220.12,820.5,220.12,814.5,202.12" style="stroke:#181818;stroke-width:1.0;"/></g><!--reverse link Usuario to AdminPipeline--><g id="link_Usuario_AdminPipeline"><path codeLine="44" d="M958.4853,200.3173 C964.6553,204.1273 955.47,198.4 961.5,202 C1001.12,225.65 1046.29,250.23 1083.57,269.91 " fill="none" id="Usuario-backto-AdminPipeline" style="stroke:#181818;stroke-width:1.0;"/><polygon fill="none" points="943.17,190.86,955.3329,205.4224,961.6378,195.2122,943.17,190.86" style="stroke:#181818;stroke-width:1.0;"/></g><!--reverse link Usuario to Auditor--><g id="link_Usuario_Auditor"><path codeLine="45" d="M959.4422,201.7552 C965.5322,204.6352 955.39,199.61 961.5,202 C1113.39,261.37 1163.84,228.76 1323.5,262 C1335.34,264.47 1347.56,267.17 1359.82,269.99 " fill="none" id="Usuario-backto-Auditor" style="stroke:#181818;stroke-width:1.0;"/><polygon fill="none" points="943.17,194.06,956.8771,207.1793,962.0072,196.3312,943.17,194.06" style="stroke:#181818;stroke-width:1.0;"/></g><!--SRC=[TLHDRzim3BtxLmWzEMXYR3iMHG5tpTO11HQasTbG9SRX88k69AU7RVzzb2mxITVTulT8wZr-H1dflVZX1-cGnAz2Y9L0BMx4DnkW1PS0w2GQnfw3GzicgEUqLtAwEKX_kAJGDr85F0B3zqG6f4suXxO36oX6vvyFCf1Ff78W0-X61gOPXXrsmCorCDIYBPE4vVpiug9s2g8Xb14-4kg4gOEqBMnoHab6BuM5rpdcJr6evFvx3qvgSid-jJY2Us1JBoGvQv7avA-9hWsu87qTNKgVOfxGXziHlpjLVXwuz15zhiqssRKZFoNa9jzDXRVGamlW7vaaXuhEYcTkZ7MWo9AQf9Ie_xLLwmvjhHHuoiwanzPAzsMm2ic2BuTnxakndw2B3kRukdL37njqYg-_RfkpDrExoIhGu3RWEdQyWuxrIbDMLVKVRHlimQ25hCxdPacttZqbtsiV-5d-6daog318xX9ottXzIlW9QeZ2ctSRC6WCyrXPdnyCfsSOPRb74wSnjtXzZ5MP7vlSWkN5c8RocRhUe6IJILj6uslJzTp-NgtcPRf4JujmYP_Dw1rYQj0RQjHV59O228Vj8GZQJpVCoX_10OzJtWWbjHIEZBW2BmOh0lOnGCFL55w97MbUo0Fdw7HCuxqjblDDBHbySqkBIgpDVD3CE_3f3m0uomiTprgmNNmn4E-xlDys7pv-MbG5M2sYxhy0]--></g></svg>