<svg xmlns="http://www.w3.org/2000/svg" xmlns:xlink="http://www.w3.org/1999/xlink" contentStyleType="text/css" height="1759px" preserveAspectRatio="none" style="width:416px;height:1759px;background:#FFFFFF;" version="1.1" viewBox="0 0 416 1759" width="416px" zoomAndPan="magnify"><defs/><g><ellipse cx="186.8271" cy="20" fill="#222222" rx="10" ry="10" style="stroke:#222222;stroke-width:1.0;"/><rect fill="#F1F1F1" height="33.9688" rx="12.5" ry="12.5" style="stroke:#181818;stroke-width:0.5;" width="156.6172" x="108.5186" y="50"/><text fill="#000000" font-family="sans-serif" font-size="12" lengthAdjust="spacing" textLength="136.6172" x="118.5186" y="71.1387">Admin selecciona User</text><rect fill="#F1F1F1" height="33.9688" rx="12.5" ry="12.5" style="stroke:#181818;stroke-width:0.5;" width="228.6113" x="72.5215" y="103.9688"/><text fill="#000000" font-family="sans-serif" font-size="12" lengthAdjust="spacing" textLength="208.6113" x="82.5215" y="125.1074">Admin click "Resetear contrasena"</text><rect fill="#F1F1F1" height="33.9688" rx="12.5" ry="12.5" style="stroke:#181818;stroke-width:0.5;" width="156.5879" x="108.5332" y="157.9375"/><text fill="#000000" font-family="sans-serif" font-size="12" lengthAdjust="spacing" textLength="136.5879" x="118.5332" y="179.0762">Modal de confirmacion</text><rect fill="#F1F1F1" height="89.8438" rx="12.5" ry="12.5" style="stroke:#181818;stroke-width:0.5;" width="248.8203" x="62.417" y="260.3086"/><text fill="#000000" font-family="sans-serif" font-size="12" lengthAdjust="spacing" textLength="86.7129" x="72.417" y="281.4473">Cancelar; stop</text><text fill="#000000" font-family="sans-serif" font-size="12" lengthAdjust="spacing" textLength="47.1152" x="72.417" y="295.416">else (si)</text><text fill="#000000" font-family="sans-serif" font-size="12" lengthAdjust="spacing" textLength="30.1641" x="72.417" y="309.3848">endif</text><text fill="#000000" font-family="sans-serif" font-size="12" lengthAdjust="spacing" textLength="3.8145" x="72.417" y="323.3535">&#160;</text><text fill="#000000" font-family="sans-serif" font-size="12" lengthAdjust="spacing" textLength="228.8203" x="72.417" y="337.3223">:POST /api/users/{id}/reset-password/</text><rect fill="#F1F1F1" height="103.8125" rx="12.5" ry="12.5" style="stroke:#181818;stroke-width:0.5;" width="237.0313" x="68.3115" y="418.5547"/><text fill="#000000" font-family="sans-serif" font-size="12" lengthAdjust="spacing" textLength="156.0938" x="78.3115" y="439.6934">401 INVALID_TOKEN; stop</text><text fill="#000000" font-family="sans-serif" font-size="12" lengthAdjust="spacing" textLength="47.1152" x="78.3115" y="453.6621">else (si)</text><text fill="#000000" font-family="sans-serif" font-size="12" lengthAdjust="spacing" textLength="30.1641" x="78.3115" y="467.6309">endif</text><text fill="#000000" font-family="sans-serif" font-size="12" lengthAdjust="spacing" textLength="3.8145" x="78.3115" y="481.5996">&#160;</text><text fill="#000000" font-family="sans-serif" font-size="12" lengthAdjust="spacing" textLength="217.0313" x="78.3115" y="495.5684">if (Tiene reset_password?) then (no)</text><text fill="#000000" font-family="sans-serif" font-size="12" lengthAdjust="spacing" textLength="102.2578" x="85.9404" y="509.5371">:403 FORBIDDEN</text><rect fill="#F1F1F1" height="33.9688" rx="12.5" ry="12.5" style="stroke:#181818;stroke-width:0.5;" width="267.9102" x="52.8721" y="550.4453"/><text fill="#000000" font-family="sans-serif" font-size="12" lengthAdjust="spacing" textLength="247.9102" x="62.8721" y="571.584">Audit UNAUTHORIZED_ACCESS_ATTEMPT</text><ellipse cx="186.8271" cy="615.4141" fill="none" rx="11" ry="11" style="stroke:#222222;stroke-width:1.0;"/><ellipse cx="186.8271" cy="615.4141" fill="#222222" rx="6" ry="6" style="stroke:#222222;stroke-width:1.0;"/><polygon fill="#F1F1F1" points="155.2021,370.1523,218.4521,370.1523,230.4521,382.1523,218.4521,394.1523,155.2021,394.1523,143.2021,382.1523,155.2021,370.1523" style="stroke:#181818;stroke-width:0.5;"/><text fill="#000000" font-family="sans-serif" font-size="11" lengthAdjust="spacing" textLength="13.7017" x="190.8271" y="404.3628">no</text><text fill="#000000" font-family="sans-serif" font-size="11" lengthAdjust="spacing" textLength="63.25" x="155.2021" y="385.9604">JWT valido?</text><text fill="#000000" font-family="sans-serif" font-size="11" lengthAdjust="spacing" textLength="8.7871" x="230.4521" y="379.5581">si</text><rect fill="#F1F1F1" height="229.5313" rx="12.5" ry="12.5" style="stroke:#181818;stroke-width:0.5;" width="267.1602" x="53.2471" y="716.8164"/><text fill="#000000" font-family="sans-serif" font-size="12" lengthAdjust="spacing" textLength="173.9121" x="63.2471" y="737.9551">404 USER_NOT_FOUND; stop</text><text fill="#000000" font-family="sans-serif" font-size="12" lengthAdjust="spacing" textLength="47.1152" x="63.2471" y="751.9238">else (si)</text><text fill="#000000" font-family="sans-serif" font-size="12" lengthAdjust="spacing" textLength="30.1641" x="63.2471" y="765.8926">endif</text><text fill="#000000" font-family="sans-serif" font-size="12" lengthAdjust="spacing" textLength="3.8145" x="63.2471" y="779.8613">&#160;</text><text fill="#000000" font-family="sans-serif" font-size="12" lengthAdjust="spacing" textLength="160.623" x="63.2471" y="793.8301">if (Es auto-reset?) then (si)</text><text fill="#000000" font-family="sans-serif" font-size="12" lengthAdjust="spacing" textLength="215.2676" x="70.876" y="807.7988">:400 SELF_RESET_FORBIDDEN; stop</text><text fill="#000000" font-family="sans-serif" font-size="12" lengthAdjust="spacing" textLength="52.4766" x="63.2471" y="821.7676">else (no)</text><text fill="#000000" font-family="sans-serif" font-size="12" lengthAdjust="spacing" textLength="30.1641" x="63.2471" y="835.7363">endif</text><text fill="#000000" font-family="sans-serif" font-size="12" lengthAdjust="spacing" textLength="3.8145" x="63.2471" y="849.7051">&#160;</text><text fill="#000000" font-family="sans-serif" font-size="12" lengthAdjust="spacing" textLength="185.1855" x="63.2471" y="863.6738">if (User ELIMINATED?) then (si)</text><text fill="#000000" font-family="sans-serif" font-size="12" lengthAdjust="spacing" textLength="175.8926" x="70.876" y="877.6426">:400 USER_ELIMINATED; stop</text><text fill="#000000" font-family="sans-serif" font-size="12" lengthAdjust="spacing" textLength="52.4766" x="63.2471" y="891.6113">else (no)</text><text fill="#000000" font-family="sans-serif" font-size="12" lengthAdjust="spacing" textLength="30.1641" x="63.2471" y="905.5801">endif</text><text fill="#000000" font-family="sans-serif" font-size="12" lengthAdjust="spacing" textLength="3.8145" x="63.2471" y="919.5488">&#160;</text><text fill="#000000" font-family="sans-serif" font-size="12" lengthAdjust="spacing" textLength="247.1602" x="63.2471" y="933.5176">:Generar password temporal (12+ chars)</text><rect fill="#F1F1F1" height="33.9688" rx="12.5" ry="12.5" style="stroke:#181818;stroke-width:0.5;" width="269.6914" x="51.9814" y="966.3477"/><text fill="#000000" font-family="sans-serif" font-size="12" lengthAdjust="spacing" textLength="249.6914" x="61.9814" y="987.4863">generarHash (costo de hash configurado)</text><rect fill="none" height="298.1406" style="stroke:#000000;stroke-width:1.5;" width="351.6543" x="11" y="1012.8711"/><path d="M166.2432,1012.8711 L166.2432,1022.168 L156.2432,1032.168 L11,1032.168 " fill="none" style="stroke:#000000;stroke-width:1.5;"/><text fill="#000000" font-family="sans-serif" font-size="14" lengthAdjust="spacing" textLength="145.2432" x="14" y="1026.8662">Transaccion atomica</text><rect fill="#F1F1F1" height="33.9688" rx="12.5" ry="12.5" style="stroke:#181818;stroke-width:0.5;" width="316.2031" x="28.7256" y="1049.168"/><text fill="#000000" font-family="sans-serif" font-size="12" lengthAdjust="spacing" textLength="296.2031" x="38.7256" y="1070.3066">actualizar User (password_hash, first_login=true)</text><rect fill="#F1F1F1" height="33.9688" rx="12.5" ry="12.5" style="stroke:#181818;stroke-width:0.5;" width="312.2422" x="30.7061" y="1103.1367"/><text fill="#000000" font-family="sans-serif" font-size="12" lengthAdjust="spacing" textLength="292.2422" x="40.7061" y="1124.2754">actualizar Session (CLOSED, PASSWORD_RESET)</text><rect fill="#F1F1F1" height="33.9688" rx="12.5" ry="12.5" style="stroke:#181818;stroke-width:0.5;" width="176.9609" x="98.3467" y="1157.1055"/><text fill="#000000" font-family="sans-serif" font-size="12" lengthAdjust="spacing" textLength="156.9609" x="108.3467" y="1178.2441">registrar BlacklistedToken</text><rect fill="#F1F1F1" height="33.9688" rx="12.5" ry="12.5" style="stroke:#181818;stroke-width:0.5;" width="279.9863" x="46.834" y="1211.0742"/><text fill="#000000" font-family="sans-serif" font-size="12" lengthAdjust="spacing" textLength="259.9863" x="56.834" y="1232.2129">registrar InternalMessage (CNST-001+002)</text><rect fill="#F1F1F1" height="33.9688" rx="12.5" ry="12.5" style="stroke:#181818;stroke-width:0.5;" width="331.6543" x="21" y="1265.043"/><text fill="#000000" font-family="sans-serif" font-size="12" lengthAdjust="spacing" textLength="311.6543" x="31" y="1286.1816">registrar AuditEvent PASSWORD_RESET (CNST-025)</text><rect fill="#F1F1F1" height="33.9688" rx="12.5" ry="12.5" style="stroke:#181818;stroke-width:0.5;" width="83.8438" x="144.9053" y="1379.4141"/><text fill="#000000" font-family="sans-serif" font-size="12" lengthAdjust="spacing" textLength="63.8438" x="154.9053" y="1400.5527">ROLLBACK</text><rect fill="#F1F1F1" height="33.9688" rx="12.5" ry="12.5" style="stroke:#181818;stroke-width:0.5;" width="69.8516" x="151.9014" y="1433.3828"/><text fill="#000000" font-family="sans-serif" font-size="12" lengthAdjust="spacing" textLength="49.8516" x="161.9014" y="1454.5215">500/503</text><ellipse cx="186.8271" cy="1498.3516" fill="none" rx="11" ry="11" style="stroke:#222222;stroke-width:1.0;"/><ellipse cx="186.8271" cy="1498.3516" fill="#222222" rx="6" ry="6" style="stroke:#222222;stroke-width:1.0;"/><polygon fill="#F1F1F1" points="141.0842,1331.0117,232.5701,1331.0117,244.5701,1343.0117,232.5701,1355.0117,141.0842,1355.0117,129.0842,1343.0117,141.0842,1331.0117" style="stroke:#181818;stroke-width:0.5;"/><text fill="#000000" font-family="sans-serif" font-size="11" lengthAdjust="spacing" textLength="13.7017" x="190.8271" y="1365.2222">no</text><text fill="#000000" font-family="sans-serif" font-size="11" lengthAdjust="spacing" textLength="91.4858" x="141.0842" y="1346.8198">Transaccion OK?</text><text fill="#000000" font-family="sans-serif" font-size="11" lengthAdjust="spacing" textLength="8.7871" x="244.5701" y="1340.4175">si</text><rect fill="#F1F1F1" height="33.9688" rx="12.5" ry="12.5" style="stroke:#181818;stroke-width:0.5;" width="270.1777" x="51.7383" y="1551.3516"/><text fill="#000000" font-family="sans-serif" font-size="12" lengthAdjust="spacing" textLength="250.1777" x="61.7383" y="1572.4902">200 OK (sin temp_password en response)</text><rect fill="#F1F1F1" height="33.9688" rx="12.5" ry="12.5" style="stroke:#181818;stroke-width:0.5;" width="300.9688" x="36.3428" y="1605.3203"/><text fill="#000000" font-family="sans-serif" font-size="12" lengthAdjust="spacing" textLength="280.9688" x="46.3428" y="1626.459">Frontend muestra confirmacion (sin password)</text><ellipse cx="186.8271" cy="1670.2891" fill="none" rx="11" ry="11" style="stroke:#222222;stroke-width:1.0;"/><ellipse cx="186.8271" cy="1670.2891" fill="#222222" rx="6" ry="6" style="stroke:#222222;stroke-width:1.0;"/><polygon fill="#F1F1F1" points="153.051,668.4141,220.6033,668.4141,232.6033,680.4141,220.6033,692.4141,153.051,692.4141,141.051,680.4141,153.051,668.4141" style="stroke:#181818;stroke-width:0.5;"/><text fill="#000000" font-family="sans-serif" font-size="11" lengthAdjust="spacing" textLength="13.7017" x="190.8271" y="702.6245">no</text><text fill="#000000" font-family="sans-serif" font-size="11" lengthAdjust="spacing" textLength="67.5522" x="153.051" y="684.2222">User existe?</text><polygon fill="#F1F1F1" points="140.2061,211.9063,233.4482,211.9063,245.4482,223.9063,233.4482,235.9063,140.2061,235.9063,128.2061,223.9063,140.2061,211.9063" style="stroke:#181818;stroke-width:0.5;"/><text fill="#000000" font-family="sans-serif" font-size="11" lengthAdjust="spacing" textLength="13.7017" x="190.8271" y="246.1167">no</text><text fill="#000000" font-family="sans-serif" font-size="11" lengthAdjust="spacing" textLength="93.2422" x="140.2061" y="227.7144">Admin confirma?</text><polygon fill="#F1F1F1" points="186.8271,1723.2891,198.8271,1735.2891,186.8271,1747.2891,174.8271,1735.2891,186.8271,1723.2891" style="stroke:#181818;stroke-width:0.5;"/><line style="stroke:#181818;stroke-width:1.0;" x1="186.8271" x2="186.8271" y1="30" y2="50"/><polygon fill="#181818" points="182.8271,40,186.8271,50,190.8271,40,186.8271,44" style="stroke:#181818;stroke-width:1.0;"/><line style="stroke:#181818;stroke-width:1.0;" x1="186.8271" x2="186.8271" y1="83.9688" y2="103.9688"/><polygon fill="#181818" points="182.8271,93.9688,186.8271,103.9688,190.8271,93.9688,186.8271,97.9688" style="stroke:#181818;stroke-width:1.0;"/><line style="stroke:#181818;stroke-width:1.0;" x1="186.8271" x2="186.8271" y1="137.9375" y2="157.9375"/><polygon fill="#181818" points="182.8271,147.9375,186.8271,157.9375,190.8271,147.9375,186.8271,151.9375" style="stroke:#181818;stroke-width:1.0;"/><line style="stroke:#181818;stroke-width:1.0;" x1="186.8271" x2="186.8271" y1="522.3672" y2="550.4453"/><polygon fill="#181818" points="182.8271,540.4453,186.8271,550.4453,190.8271,540.4453,186.8271,544.4453" style="stroke:#181818;stroke-width:1.0;"/><line style="stroke:#181818;stroke-width:1.0;" x1="186.8271" x2="186.8271" y1="584.4141" y2="604.4141"/><polygon fill="#181818" points="182.8271,594.4141,186.8271,604.4141,190.8271,594.4141,186.8271,598.4141" style="stroke:#181818;stroke-width:1.0;"/><line style="stroke:#181818;stroke-width:1.0;" x1="186.8271" x2="186.8271" y1="394.1523" y2="418.5547"/><polygon fill="#181818" points="182.8271,408.5547,186.8271,418.5547,190.8271,408.5547,186.8271,412.5547" style="stroke:#181818;stroke-width:1.0;"/><line style="stroke:#181818;stroke-width:1.0;" x1="230.4521" x2="330.7822" y1="382.1523" y2="382.1523"/><polygon fill="#181818" points="326.7822,520.4453,330.7822,530.4453,334.7822,520.4453,330.7822,524.4453" style="stroke:#181818;stroke-width:1.0;"/><line style="stroke:#181818;stroke-width:1.0;" x1="330.7822" x2="330.7822" y1="382.1523" y2="648.4141"/><line style="stroke:#181818;stroke-width:1.0;" x1="330.7822" x2="186.8271" y1="648.4141" y2="648.4141"/><line style="stroke:#181818;stroke-width:1.0;" x1="186.8271" x2="186.8271" y1="648.4141" y2="668.4141"/><polygon fill="#181818" points="182.8271,658.4141,186.8271,668.4141,190.8271,658.4141,186.8271,662.4141" style="stroke:#181818;stroke-width:1.0;"/><line style="stroke:#181818;stroke-width:1.0;" x1="186.8271" x2="186.8271" y1="350.1523" y2="370.1523"/><polygon fill="#181818" points="182.8271,360.1523,186.8271,370.1523,190.8271,360.1523,186.8271,364.1523" style="stroke:#181818;stroke-width:1.0;"/><line style="stroke:#181818;stroke-width:1.0;" x1="186.8271" x2="186.8271" y1="946.3477" y2="966.3477"/><polygon fill="#181818" points="182.8271,956.3477,186.8271,966.3477,190.8271,956.3477,186.8271,960.3477" style="stroke:#181818;stroke-width:1.0;"/><line style="stroke:#181818;stroke-width:1.0;" x1="186.8271" x2="186.8271" y1="1083.1367" y2="1103.1367"/><polygon fill="#181818" points="182.8271,1093.1367,186.8271,1103.1367,190.8271,1093.1367,186.8271,1097.1367" style="stroke:#181818;stroke-width:1.0;"/><line style="stroke:#181818;stroke-width:1.0;" x1="186.8271" x2="186.8271" y1="1137.1055" y2="1157.1055"/><polygon fill="#181818" points="182.8271,1147.1055,186.8271,1157.1055,190.8271,1147.1055,186.8271,1151.1055" style="stroke:#181818;stroke-width:1.0;"/><line style="stroke:#181818;stroke-width:1.0;" x1="186.8271" x2="186.8271" y1="1191.0742" y2="1211.0742"/><polygon fill="#181818" points="182.8271,1201.0742,186.8271,1211.0742,190.8271,1201.0742,186.8271,1205.0742" style="stroke:#181818;stroke-width:1.0;"/><line style="stroke:#181818;stroke-width:1.0;" x1="186.8271" x2="186.8271" y1="1245.043" y2="1265.043"/><polygon fill="#181818" points="182.8271,1255.043,186.8271,1265.043,190.8271,1255.043,186.8271,1259.043" style="stroke:#181818;stroke-width:1.0;"/><line style="stroke:#181818;stroke-width:1.0;" x1="186.8271" x2="186.8271" y1="1000.3164" y2="1049.168"/><polygon fill="#181818" points="182.8271,1039.168,186.8271,1049.168,190.8271,1039.168,186.8271,1043.168" style="stroke:#181818;stroke-width:1.0;"/><line style="stroke:#181818;stroke-width:1.0;" x1="186.8271" x2="186.8271" y1="1413.3828" y2="1433.3828"/><polygon fill="#181818" points="182.8271,1423.3828,186.8271,1433.3828,190.8271,1423.3828,186.8271,1427.3828" style="stroke:#181818;stroke-width:1.0;"/><line style="stroke:#181818;stroke-width:1.0;" x1="186.8271" x2="186.8271" y1="1467.3516" y2="1487.3516"/><polygon fill="#181818" points="182.8271,1477.3516,186.8271,1487.3516,190.8271,1477.3516,186.8271,1481.3516" style="stroke:#181818;stroke-width:1.0;"/><line style="stroke:#181818;stroke-width:1.0;" x1="186.8271" x2="186.8271" y1="1355.0117" y2="1379.4141"/><polygon fill="#181818" points="182.8271,1369.4141,186.8271,1379.4141,190.8271,1369.4141,186.8271,1373.4141" style="stroke:#181818;stroke-width:1.0;"/><line style="stroke:#181818;stroke-width:1.0;" x1="244.5701" x2="256.5701" y1="1343.0117" y2="1343.0117"/><polygon fill="#181818" points="252.5701,1431.3828,256.5701,1441.3828,260.5701,1431.3828,256.5701,1435.3828" style="stroke:#181818;stroke-width:1.0;"/><line style="stroke:#181818;stroke-width:1.0;" x1="256.5701" x2="256.5701" y1="1343.0117" y2="1531.3516"/><line style="stroke:#181818;stroke-width:1.0;" x1="256.5701" x2="186.8271" y1="1531.3516" y2="1531.3516"/><line style="stroke:#181818;stroke-width:1.0;" x1="186.8271" x2="186.8271" y1="1531.3516" y2="1551.3516"/><polygon fill="#181818" points="182.8271,1541.3516,186.8271,1551.3516,190.8271,1541.3516,186.8271,1545.3516" style="stroke:#181818;stroke-width:1.0;"/><line style="stroke:#181818;stroke-width:1.0;" x1="186.8271" x2="186.8271" y1="1299.0117" y2="1331.0117"/><polygon fill="#181818" points="182.8271,1321.0117,186.8271,1331.0117,190.8271,1321.0117,186.8271,1325.0117" style="stroke:#181818;stroke-width:1.0;"/><line style="stroke:#181818;stroke-width:1.0;" x1="186.8271" x2="186.8271" y1="1585.3203" y2="1605.3203"/><polygon fill="#181818" points="182.8271,1595.3203,186.8271,1605.3203,190.8271,1595.3203,186.8271,1599.3203" style="stroke:#181818;stroke-width:1.0;"/><line style="stroke:#181818;stroke-width:1.0;" x1="186.8271" x2="186.8271" y1="1639.2891" y2="1659.2891"/><polygon fill="#181818" points="182.8271,1649.2891,186.8271,1659.2891,190.8271,1649.2891,186.8271,1653.2891" style="stroke:#181818;stroke-width:1.0;"/><line style="stroke:#181818;stroke-width:1.0;" x1="186.8271" x2="186.8271" y1="692.4141" y2="716.8164"/><polygon fill="#181818" points="182.8271,706.8164,186.8271,716.8164,190.8271,706.8164,186.8271,710.8164" style="stroke:#181818;stroke-width:1.0;"/><line style="stroke:#181818;stroke-width:1.0;" x1="232.6033" x2="372.6543" y1="680.4141" y2="680.4141"/><polygon fill="#181818" points="368.6543,1205.5313,372.6543,1215.5313,376.6543,1205.5313,372.6543,1209.5313" style="stroke:#181818;stroke-width:1.0;"/><line style="stroke:#181818;stroke-width:1.0;" x1="372.6543" x2="372.6543" y1="680.4141" y2="1703.2891"/><line style="stroke:#181818;stroke-width:1.0;" x1="372.6543" x2="186.8271" y1="1703.2891" y2="1703.2891"/><line style="stroke:#181818;stroke-width:1.0;" x1="186.8271" x2="186.8271" y1="1703.2891" y2="1723.2891"/><polygon fill="#181818" points="182.8271,1713.2891,186.8271,1723.2891,190.8271,1713.2891,186.8271,1717.2891" style="stroke:#181818;stroke-width:1.0;"/><line style="stroke:#181818;stroke-width:1.0;" x1="186.8271" x2="186.8271" y1="235.9063" y2="260.3086"/><polygon fill="#181818" points="182.8271,250.3086,186.8271,260.3086,190.8271,250.3086,186.8271,254.3086" style="stroke:#181818;stroke-width:1.0;"/><line style="stroke:#181818;stroke-width:1.0;" x1="245.4482" x2="390.6543" y1="223.9063" y2="223.9063"/><polygon fill="#181818" points="386.6543,1010.3164,390.6543,1020.3164,394.6543,1010.3164,390.6543,1014.3164" style="stroke:#181818;stroke-width:1.0;"/><line style="stroke:#181818;stroke-width:1.0;" x1="390.6543" x2="390.6543" y1="223.9063" y2="1735.2891"/><line style="stroke:#181818;stroke-width:1.0;" x1="390.6543" x2="198.8271" y1="1735.2891" y2="1735.2891"/><polygon fill="#181818" points="208.8271,1731.2891,198.8271,1735.2891,208.8271,1739.2891,204.8271,1735.2891" style="stroke:#181818;stroke-width:1.0;"/><line style="stroke:#181818;stroke-width:1.0;" x1="186.8271" x2="186.8271" y1="191.9063" y2="211.9063"/><polygon fill="#181818" points="182.8271,201.9063,186.8271,211.9063,190.8271,201.9063,186.8271,205.9063" style="stroke:#181818;stroke-width:1.0;"/><!--SRC=[VPHHRvim58NV-HLNUI9ggz2qVKaqJJGuAqi25JYhj1TamMrYbTYHRRffLV_xR1AwZYvxnDpxdUDx3sZ3bF6yILZjk02DDPObbuB1MgEQTkTbpSid66IeqI1JK4fX5DCesC3Mh6J5QgZG7JzojMEECFKy_WZ-iV_uulCGp1O5-48EFO39Z8aIQwQce8tSUrXh15_peOUYue_MrdsQKnYnFHyrreyUlV3gTQISZOizq_g7LDNegFJrWS8pgtab-ohNmIN4oRTm6KS5JHSaEINdC9IZG6WbYaxY8_0Avcbs6qUHXRcJiAcuWNKIhkbTciNVILI4ind9yoAabApkgQiwBUg63VYJQuCVjQvXdPEiI59QpDDr4ltFFT706YClMlzlA5VKeWB8oN9UP2Gd3jRTu3tGoVQTaMMyYfEGakXVoDRTdv9JjCaNErXbmzDD5GpkzbBPwFYNupCejqpfeOtJvb1tn_GM_59QcilMrZssETeqYbNILdfxcrrkRDXWG1KJchNP1MRaZfTi02_E8YjDOsFnoogtb_4x_S8Xpy46KvkYbXikFXdLu73QwyfHQuVrPyiq9z4vt8Tv_f1cqM6EXtg56xizTxtRcfLFjLjbHUKJYjxhM1XKWjKhIsKREw9PajEB8BWy2u9ndzN6YZoZC3tHhcryOrjUZybzDu9qqSzHbYwNj-5iqIhS1C7e9hWw7Sh9s2usNRWpqUxfxLi0oxJfsakXtQWcSsN_1ROBTWqwqt_z10xzNQjRMIlt6m00]--></g></svg>