<svg xmlns="http://www.w3.org/2000/svg" xmlns:xlink="http://www.w3.org/1999/xlink" contentStyleType="text/css" height="410px" preserveAspectRatio="none" style="width:524px;height:410px;background:#FFFFFF;" version="1.1" viewBox="0 0 524 410" width="524px" zoomAndPan="magnify"><defs/><g><!--class Usuario--><g id="elem_Usuario"><rect codeLine="2" fill="#F1F1F1" height="48" id="Usuario" rx="2.5" ry="2.5" style="stroke:#181818;stroke-width:0.5;" width="85.2041" x="8" y="7"/><ellipse cx="23" cy="23" fill="#ADD1B2" rx="11" ry="11" style="stroke:#181818;stroke-width:1.0;"/><path d="M25.9688,28.6406 Q25.3906,28.9375 24.75,29.0781 Q24.1094,29.2344 23.4063,29.2344 Q20.9063,29.2344 19.5781,27.5938 Q18.2656,25.9375 18.2656,22.8125 Q18.2656,19.6875 19.5781,18.0313 Q20.9063,16.375 23.4063,16.375 Q24.1094,16.375 24.75,16.5313 Q25.4063,16.6875 25.9688,16.9844 L25.9688,19.7031 Q25.3438,19.125 24.75,18.8594 Q24.1563,18.5781 23.5313,18.5781 Q22.1875,18.5781 21.5,19.6563 Q20.8125,20.7188 20.8125,22.8125 Q20.8125,24.9063 21.5,25.9844 Q22.1875,27.0469 23.5313,27.0469 Q24.1563,27.0469 24.75,26.7813 Q25.3438,26.5 25.9688,25.9219 L25.9688,28.6406 Z " fill="#000000"/><text fill="#000000" font-family="sans-serif" font-size="14" lengthAdjust="spacing" textLength="53.2041" x="37" y="27.8467">Usuario</text><line style="stroke:#181818;stroke-width:0.5;" x1="9" x2="92.2041" y1="39" y2="39"/><line style="stroke:#181818;stroke-width:0.5;" x1="9" x2="92.2041" y1="47" y2="47"/></g><!--class Funcion--><g id="elem_Funcion"><rect codeLine="3" fill="#F1F1F1" height="48" id="Funcion" rx="2.5" ry="2.5" style="stroke:#181818;stroke-width:0.5;" width="86.8242" x="7" y="355"/><ellipse cx="22" cy="371" fill="#ADD1B2" rx="11" ry="11" style="stroke:#181818;stroke-width:1.0;"/><path d="M24.9688,376.6406 Q24.3906,376.9375 23.75,377.0781 Q23.1094,377.2344 22.4063,377.2344 Q19.9063,377.2344 18.5781,375.5938 Q17.2656,373.9375 17.2656,370.8125 Q17.2656,367.6875 18.5781,366.0313 Q19.9063,364.375 22.4063,364.375 Q23.1094,364.375 23.75,364.5313 Q24.4063,364.6875 24.9688,364.9844 L24.9688,367.7031 Q24.3438,367.125 23.75,366.8594 Q23.1563,366.5781 22.5313,366.5781 Q21.1875,366.5781 20.5,367.6563 Q19.8125,368.7188 19.8125,370.8125 Q19.8125,372.9063 20.5,373.9844 Q21.1875,375.0469 22.5313,375.0469 Q23.1563,375.0469 23.75,374.7813 Q24.3438,374.5 24.9688,373.9219 L24.9688,376.6406 Z " fill="#000000"/><text fill="#000000" font-family="sans-serif" font-size="14" lengthAdjust="spacing" textLength="54.8242" x="36" y="375.8467">Funcion</text><line style="stroke:#181818;stroke-width:0.5;" x1="8" x2="92.8242" y1="387" y2="387"/><line style="stroke:#181818;stroke-width:0.5;" x1="8" x2="92.8242" y1="395" y2="395"/></g><!--class Asignacion--><g id="elem_Asignacion"><rect codeLine="5" fill="#F1F1F1" height="162.0781" id="Asignacion" rx="2.5" ry="2.5" style="stroke:#181818;stroke-width:0.5;" width="190.2676" x="87.5" y="132"/><ellipse cx="140.3213" cy="148" fill="#ADD1B2" rx="11" ry="11" style="stroke:#181818;stroke-width:1.0;"/><path d="M143.29,153.6406 Q142.7119,153.9375 142.0713,154.0781 Q141.4307,154.2344 140.7275,154.2344 Q138.2275,154.2344 136.8994,152.5938 Q135.5869,150.9375 135.5869,147.8125 Q135.5869,144.6875 136.8994,143.0313 Q138.2275,141.375 140.7275,141.375 Q141.4307,141.375 142.0713,141.5313 Q142.7275,141.6875 143.29,141.9844 L143.29,144.7031 Q142.665,144.125 142.0713,143.8594 Q141.4775,143.5781 140.8525,143.5781 Q139.5088,143.5781 138.8213,144.6563 Q138.1338,145.7188 138.1338,147.8125 Q138.1338,149.9063 138.8213,150.9844 Q139.5088,152.0469 140.8525,152.0469 Q141.4775,152.0469 142.0713,151.7813 Q142.665,151.5 143.29,150.9219 L143.29,153.6406 Z " fill="#000000"/><text fill="#000000" font-family="sans-serif" font-size="14" lengthAdjust="spacing" textLength="76.125" x="160.8213" y="152.8467">Asignacion</text><line style="stroke:#181818;stroke-width:0.5;" x1="88.5" x2="276.7676" y1="164" y2="164"/><rect fill="none" height="6" style="stroke:#C82930;stroke-width:1.0;" width="6" x="95.5" y="174.6484"/><text fill="#000000" font-family="sans-serif" font-size="14" lengthAdjust="spacing" textLength="164.2676" x="107.5" y="180.9951">fecha_inicio : DateTime</text><rect fill="none" height="6" style="stroke:#C82930;stroke-width:1.0;" width="6" x="95.5" y="190.9453"/><text fill="#000000" font-family="sans-serif" font-size="14" lengthAdjust="spacing" textLength="145.1543" x="107.5" y="197.292">fecha_fin : DateTime</text><rect fill="none" height="6" style="stroke:#C82930;stroke-width:1.0;" width="6" x="95.5" y="207.2422"/><text fill="#000000" font-family="sans-serif" font-size="14" lengthAdjust="spacing" textLength="139.2822" x="107.5" y="213.5889">aprobador : Usuario</text><rect fill="none" height="6" style="stroke:#C82930;stroke-width:1.0;" width="6" x="95.5" y="223.5391"/><text fill="#000000" font-family="sans-serif" font-size="14" lengthAdjust="spacing" textLength="156.6318" x="107.5" y="229.8857">es_temporal : Boolean</text><rect fill="none" height="6" style="stroke:#C82930;stroke-width:1.0;" width="6" x="95.5" y="239.8359"/><text fill="#000000" font-family="sans-serif" font-size="14" lengthAdjust="spacing" textLength="138.9541" x="107.5" y="246.1826">justificacion : String</text><line style="stroke:#181818;stroke-width:0.5;" x1="88.5" x2="276.7676" y1="253.4844" y2="253.4844"/><ellipse cx="98.5" cy="267.1328" fill="#84BE84" rx="3" ry="3" style="stroke:#038048;stroke-width:1.0;"/><text fill="#000000" font-family="sans-serif" font-size="14" lengthAdjust="spacing" textLength="64.1758" x="107.5" y="270.4795">revocar()</text><ellipse cx="98.5" cy="283.4297" fill="#84BE84" rx="3" ry="3" style="stroke:#038048;stroke-width:1.0;"/><text fill="#000000" font-family="sans-serif" font-size="14" lengthAdjust="spacing" textLength="162.9688" x="107.5" y="286.7764">extender(nueva_fecha)</text></g><ellipse cx="50.5" cy="213" fill="#181818" rx="2" ry="2" style="stroke:#181818;stroke-width:1.0;"/><g id="elem_GMN11"><path d="M313,170 L313,209 L277.61,213 L313,217 L313,255.6641 A0,0 0 0 0 313,255.6641 L517.9868,255.6641 A0,0 0 0 0 517.9868,255.6641 L517.9868,180 L507.9868,170 L313,170 A0,0 0 0 0 313,170 " fill="#FEFFDD" style="stroke:#181818;stroke-width:0.5;"/><path d="M507.9868,170 L507.9868,180 L517.9868,180 L507.9868,170 " fill="#FEFFDD" style="stroke:#181818;stroke-width:0.5;"/><text fill="#000000" font-family="sans-serif" font-size="13" lengthAdjust="spacing" textLength="183.9868" x="319" y="187.0669">Cuando es_temporal = true,</text><text fill="#000000" font-family="sans-serif" font-size="13" lengthAdjust="spacing" textLength="110.0874" x="319" y="202.1997">CNST_031 obliga</text><text fill="#000000" font-family="sans-serif" font-size="13" lengthAdjust="spacing" textLength="182.0444" x="319" y="217.3325">fecha_fin &#8804; fecha_inicio + 6</text><text fill="#000000" font-family="sans-serif" font-size="13" lengthAdjust="spacing" textLength="163.2236" x="319" y="232.4653">meses y justificaci&#243;n con</text><text fill="#000000" font-family="sans-serif" font-size="13" lengthAdjust="spacing" textLength="108.6147" x="319" y="247.5981">&#8805; 20 caracteres.</text></g><!--link Usuario to apoint6--><g id="link_Usuario_apoint6"><path d="M50.5,55.16 C50.5,100.74 50.5,198.71 50.5,210.77 " fill="none" id="Usuario-apoint6" style="stroke:#181818;stroke-width:1.0;"/><text fill="#000000" font-family="sans-serif" font-size="13" lengthAdjust="spacing" textLength="59.0142" x="51.5" y="98.0669">asignado</text><text fill="#000000" font-family="sans-serif" font-size="13" lengthAdjust="spacing" textLength="23.0356" x="24.6763" y="74.9602">0..*</text></g><!--link apoint6 to Funcion--><g id="link_apoint6_Funcion"><path d="M50.5,215.05 C50.5,225.55 50.5,312.4 50.5,354.83 " fill="none" id="apoint6-Funcion" style="stroke:#181818;stroke-width:1.0;"/><text fill="#000000" font-family="sans-serif" font-size="13" lengthAdjust="spacing" textLength="23.0356" x="24.5802" y="343.7985">0..*</text></g><!--link apoint6 to Asignacion--><g id="link_apoint6_Asignacion"><path d="M52.56,213 C64.15,213 75.74,213 87.33,213 " fill="none" id="apoint6-Asignacion" style="stroke:#181818;stroke-width:1.0;stroke-dasharray:7.0,7.0;"/></g><!--SRC=[NP1DJiCm48NtFiMeguGsKG29HIKM_8WbcvPrD7KcwQ34KzbE1K8SeFU04t04RjAJu8H4fEpytZVocpUwHkVWoRLeMPJkrKDhD8jHWxnnN1di77XJ00cKfBUOi-7WmHBkqTEQ6vgmair_W3ih6op41Z36TJwvt5Ep4ujr8BSYDQ7foNFhF9UiVwENiFAMJHNG72pjHQEDubxHYoTJa8rCI_iGtgqGgtUbXXoOPMbwDeCa6Lz3m_0fzkKAKT4ml1XX36awwQwCU0BBrTQ3b5C0SDUYAUIaoZLuszAYWu-hTPvTdeDiQgumE7ytEXu-JgyvXwimq90Z1w_J2tn_6T1zsF7m2HSPXFgeFLbogGhjeLll1m00]--></g></svg>