<svg xmlns="http://www.w3.org/2000/svg" xmlns:xlink="http://www.w3.org/1999/xlink" contentStyleType="text/css" height="231px" preserveAspectRatio="none" style="width:270px;height:231px;background:#FFFFFF;" version="1.1" viewBox="0 0 270 231" width="270px" zoomAndPan="magnify"><defs/><g><!--cluster API--><g id="cluster_API"><path d="M8.5,6 L35.8047,6 A3.75,3.75 0 0 1 38.3047,8.5 L45.3047,28.2969 L260.5,28.2969 A2.5,2.5 0 0 1 263,30.7969 L263,100.5 A2.5,2.5 0 0 1 260.5,103 L8.5,103 A2.5,2.5 0 0 1 6,100.5 L6,8.5 A2.5,2.5 0 0 1 8.5,6 " fill="none" style="stroke:#000000;stroke-width:1.5;"/><line style="stroke:#000000;stroke-width:1.5;" x1="6" x2="45.3047" y1="28.2969" y2="28.2969"/><text fill="#000000" font-family="sans-serif" font-size="14" font-weight="bold" lengthAdjust="spacing" textLength="26.3047" x="10" y="20.9951">API</text></g><!--cluster Database--><g id="cluster_Database"><path d="M66.5,127 L142.0049,127 A3.75,3.75 0 0 1 144.5049,129.5 L151.5049,149.2969 L199.5,149.2969 A2.5,2.5 0 0 1 202,151.7969 L202,221.5 A2.5,2.5 0 0 1 199.5,224 L66.5,224 A2.5,2.5 0 0 1 64,221.5 L64,129.5 A2.5,2.5 0 0 1 66.5,127 " fill="none" style="stroke:#000000;stroke-width:1.5;"/><line style="stroke:#000000;stroke-width:1.5;" x1="64" x2="151.5049" y1="149.2969" y2="149.2969"/><text fill="#000000" font-family="sans-serif" font-size="14" font-weight="bold" lengthAdjust="spacing" textLength="74.5049" x="68" y="141.9951">Database</text></g><!--entity UserAPI--><g id="elem_UserAPI"><rect fill="#F1F1F1" height="46.2969" rx="2.5" ry="2.5" style="stroke:#181818;stroke-width:0.5;" width="94.0586" x="153" y="41"/><rect fill="#F1F1F1" height="10" style="stroke:#181818;stroke-width:0.5;" width="15" x="227.0586" y="46"/><rect fill="#F1F1F1" height="2" style="stroke:#181818;stroke-width:0.5;" width="4" x="225.0586" y="48"/><rect fill="#F1F1F1" height="2" style="stroke:#181818;stroke-width:0.5;" width="4" x="225.0586" y="52"/><text fill="#000000" font-family="sans-serif" font-size="14" lengthAdjust="spacing" textLength="54.0586" x="168" y="73.9951">UserAPI</text></g><!--entity AuthAPI--><g id="elem_AuthAPI"><rect fill="#F1F1F1" height="46.2969" rx="2.5" ry="2.5" style="stroke:#181818;stroke-width:0.5;" width="94.9609" x="22.5" y="41"/><rect fill="#F1F1F1" height="10" style="stroke:#181818;stroke-width:0.5;" width="15" x="97.4609" y="46"/><rect fill="#F1F1F1" height="2" style="stroke:#181818;stroke-width:0.5;" width="4" x="95.4609" y="48"/><rect fill="#F1F1F1" height="2" style="stroke:#181818;stroke-width:0.5;" width="4" x="95.4609" y="52"/><text fill="#000000" font-family="sans-serif" font-size="14" lengthAdjust="spacing" textLength="54.9609" x="37.5" y="73.9951">AuthAPI</text></g><!--entity MongoDB--><g id="elem_MongoDB"><rect fill="#F1F1F1" height="46.2969" rx="2.5" ry="2.5" style="stroke:#181818;stroke-width:0.5;" width="107.3545" x="79.5" y="162"/><rect fill="#F1F1F1" height="10" style="stroke:#181818;stroke-width:0.5;" width="15" x="166.8545" y="167"/><rect fill="#F1F1F1" height="2" style="stroke:#181818;stroke-width:0.5;" width="4" x="164.8545" y="169"/><rect fill="#F1F1F1" height="2" style="stroke:#181818;stroke-width:0.5;" width="4" x="164.8545" y="173"/><text fill="#000000" font-family="sans-serif" font-size="14" lengthAdjust="spacing" textLength="67.3545" x="94.5" y="194.9951">MongoDB</text></g><!--link UserAPI to MongoDB--><g id="link_UserAPI_MongoDB"><path d="M187.55,87.1 C175.6,108.34 160.5638,135.0518 148.5538,156.3818 " fill="none" id="UserAPI-to-MongoDB" style="stroke:#181818;stroke-width:1.0;"/><polygon fill="#181818" points="145.61,161.61,153.5111,155.7302,148.0631,157.2532,146.5402,151.8052,145.61,161.61" style="stroke:#181818;stroke-width:1.0;"/></g><!--link AuthAPI to MongoDB--><g id="link_AuthAPI_MongoDB"><path d="M81.7,87.1 C92.95,108.34 107.0412,134.9781 118.3412,156.3081 " fill="none" id="AuthAPI-to-MongoDB" style="stroke:#181818;stroke-width:1.0;"/><polygon fill="#181818" points="121.15,161.61,120.4714,151.7845,118.8093,157.1917,113.4022,155.5296,121.15,161.61" style="stroke:#181818;stroke-width:1.0;"/></g><!--SRC=[AqXCpavCJrLGSWpmL5Aevb9GICxFBSZFIyqhKOWEBKuj0eh7eeewbfPaW4LhkGfWkbqIInAJ4ejJCOpmpSzBptTn0YdcWXgdeAjhfm0Lvu8QXYm60000]--></g></svg>