<svg xmlns="http://www.w3.org/2000/svg" xmlns:xlink="http://www.w3.org/1999/xlink" contentStyleType="text/css" height="941px" preserveAspectRatio="none" style="width:464px;height:941px;background:#FFFFFF;" version="1.1" viewBox="0 0 464 941" width="464px" zoomAndPan="magnify"><defs/><g><ellipse cx="127.2129" cy="20" fill="#222222" rx="10" ry="10" style="stroke:#222222;stroke-width:1.0;"/><rect fill="#F1F1F1" height="33.9688" rx="12.5" ry="12.5" style="stroke:#181818;stroke-width:0.5;" width="211.0156" x="21.7051" y="50"/><text fill="#000000" font-family="sans-serif" font-size="12" lengthAdjust="spacing" textLength="191.0156" x="31.7051" y="71.1387">Identifica User + AGR a revocar</text><rect fill="#F1F1F1" height="33.9688" rx="12.5" ry="12.5" style="stroke:#181818;stroke-width:0.5;" width="141.0137" x="56.7061" y="103.9688"/><text fill="#000000" font-family="sans-serif" font-size="12" lengthAdjust="spacing" textLength="121.0137" x="66.7061" y="125.1074">GET preview-revoke</text><rect fill="#F1F1F1" height="33.9688" rx="12.5" ry="12.5" style="stroke:#181818;stroke-width:0.5;" width="232.4258" x="11" y="157.9375"/><text fill="#000000" font-family="sans-serif" font-size="12" lengthAdjust="spacing" textLength="212.4258" x="21" y="179.0762">Modal con composicion + warnings</text><rect fill="#F1F1F1" height="103.8125" rx="12.5" ry="12.5" style="stroke:#181818;stroke-width:0.5;" width="205.9238" x="24.251" y="260.3086"/><text fill="#000000" font-family="sans-serif" font-size="12" lengthAdjust="spacing" textLength="81.7793" x="34.251" y="281.4473">Cancela; stop</text><text fill="#000000" font-family="sans-serif" font-size="12" lengthAdjust="spacing" textLength="47.1152" x="34.251" y="295.416">else (si)</text><text fill="#000000" font-family="sans-serif" font-size="12" lengthAdjust="spacing" textLength="30.1641" x="34.251" y="309.3848">endif</text><text fill="#000000" font-family="sans-serif" font-size="12" lengthAdjust="spacing" textLength="3.8145" x="34.251" y="323.3535">&#160;</text><text fill="#000000" font-family="sans-serif" font-size="12" lengthAdjust="spacing" textLength="184.459" x="34.251" y="337.3223">if (Warnings criticos?) then (si)</text><text fill="#000000" font-family="sans-serif" font-size="12" lengthAdjust="spacing" textLength="178.2949" x="41.8799" y="351.291">:Doble confirmacion (escribir)</text><path d="M211.1865,471.2813 L211.1865,487.4141 L191.1865,491.4141 L211.1865,495.4141 L211.1865,511.5469 A0,0 0 0 0 211.1865,511.5469 L410.5366,511.5469 A0,0 0 0 0 410.5366,511.5469 L410.5366,481.2813 L400.5366,471.2813 L211.1865,471.2813 A0,0 0 0 0 211.1865,471.2813 " fill="#FEFFDD" style="stroke:#181818;stroke-width:0.5;"/><path d="M400.5366,471.2813 L400.5366,481.2813 L410.5366,481.2813 L400.5366,471.2813 " fill="#FEFFDD" style="stroke:#181818;stroke-width:0.5;"/><text fill="#000000" font-family="sans-serif" font-size="13" lengthAdjust="spacing" textLength="178.3501" x="217.1865" y="488.3481">Flujo identico a UC_ACC_02</text><text fill="#000000" font-family="sans-serif" font-size="13" lengthAdjust="spacing" textLength="154.6416" x="217.1865" y="503.481">sobre target_type=AGR</text><rect fill="#F1F1F1" height="117.7813" rx="12.5" ry="12.5" style="stroke:#181818;stroke-width:0.5;" width="127.9473" x="63.2393" y="432.5234"/><text fill="#000000" font-family="sans-serif" font-size="12" lengthAdjust="spacing" textLength="81.7793" x="73.2393" y="453.6621">Cancela; stop</text><text fill="#000000" font-family="sans-serif" font-size="12" lengthAdjust="spacing" textLength="47.1152" x="80.8682" y="467.6309">else (si)</text><text fill="#000000" font-family="sans-serif" font-size="12" lengthAdjust="spacing" textLength="30.1641" x="80.8682" y="481.5996">endif</text><text fill="#000000" font-family="sans-serif" font-size="12" lengthAdjust="spacing" textLength="52.4766" x="73.2393" y="495.5684">else (no)</text><text fill="#000000" font-family="sans-serif" font-size="12" lengthAdjust="spacing" textLength="30.1641" x="73.2393" y="509.5371">endif</text><text fill="#000000" font-family="sans-serif" font-size="12" lengthAdjust="spacing" textLength="3.8145" x="73.2393" y="523.5059">&#160;</text><text fill="#000000" font-family="sans-serif" font-size="12" lengthAdjust="spacing" textLength="107.9473" x="73.2393" y="537.4746">:eliminar backend</text><rect fill="#F1F1F1" height="89.8438" rx="12.5" ry="12.5" style="stroke:#181818;stroke-width:0.5;" width="188.4336" x="32.9961" y="618.707"/><text fill="#000000" font-family="sans-serif" font-size="12" lengthAdjust="spacing" textLength="112.9863" x="42.9961" y="639.8457">Mostrar error; stop</text><text fill="#000000" font-family="sans-serif" font-size="12" lengthAdjust="spacing" textLength="47.1152" x="42.9961" y="653.8145">else (si)</text><text fill="#000000" font-family="sans-serif" font-size="12" lengthAdjust="spacing" textLength="30.1641" x="42.9961" y="667.7832">endif</text><text fill="#000000" font-family="sans-serif" font-size="12" lengthAdjust="spacing" textLength="3.8145" x="42.9961" y="681.752">&#160;</text><text fill="#000000" font-family="sans-serif" font-size="12" lengthAdjust="spacing" textLength="168.4336" x="42.9961" y="695.7207">:Refresh catalogo (count -1)</text><rect fill="#F1F1F1" height="33.9688" rx="12.5" ry="12.5" style="stroke:#181818;stroke-width:0.5;" width="134.7559" x="59.835" y="743.5508"/><text fill="#000000" font-family="sans-serif" font-size="12" lengthAdjust="spacing" textLength="114.7559" x="69.835" y="764.6895">Toast confirmacion</text><ellipse cx="127.2129" cy="808.5195" fill="none" rx="11" ry="11" style="stroke:#222222;stroke-width:1.0;"/><ellipse cx="127.2129" cy="808.5195" fill="#222222" rx="6" ry="6" style="stroke:#222222;stroke-width:1.0;"/><polygon fill="#F1F1F1" points="90.8962,570.3047,163.5295,570.3047,175.5295,582.3047,163.5295,594.3047,90.8962,594.3047,78.8962,582.3047,90.8962,570.3047" style="stroke:#181818;stroke-width:0.5;"/><text fill="#000000" font-family="sans-serif" font-size="11" lengthAdjust="spacing" textLength="13.7017" x="131.2129" y="604.5151">no</text><text fill="#000000" font-family="sans-serif" font-size="11" lengthAdjust="spacing" textLength="72.6333" x="90.8962" y="586.1128">Backend OK?</text><polygon fill="#F1F1F1" points="81.6445,384.1211,172.7813,384.1211,184.7813,396.1211,172.7813,408.1211,81.6445,408.1211,69.6445,396.1211,81.6445,384.1211" style="stroke:#181818;stroke-width:0.5;"/><text fill="#000000" font-family="sans-serif" font-size="11" lengthAdjust="spacing" textLength="13.7017" x="131.2129" y="418.3315">no</text><text fill="#000000" font-family="sans-serif" font-size="11" lengthAdjust="spacing" textLength="91.1367" x="81.6445" y="399.9292">Confirma literal?</text><polygon fill="#F1F1F1" points="127.2129,861.5195,139.2129,873.5195,127.2129,885.5195,115.2129,873.5195,127.2129,861.5195" style="stroke:#181818;stroke-width:0.5;"/><polygon fill="#F1F1F1" points="99.1489,211.9063,155.2769,211.9063,167.2769,223.9063,155.2769,235.9063,99.1489,235.9063,87.1489,223.9063,99.1489,211.9063" style="stroke:#181818;stroke-width:0.5;"/><text fill="#000000" font-family="sans-serif" font-size="11" lengthAdjust="spacing" textLength="13.7017" x="131.2129" y="246.1167">no</text><text fill="#000000" font-family="sans-serif" font-size="11" lengthAdjust="spacing" textLength="56.1279" x="99.1489" y="227.7144">Confirma?</text><polygon fill="#F1F1F1" points="127.2129,905.5195,139.2129,917.5195,127.2129,929.5195,115.2129,917.5195,127.2129,905.5195" style="stroke:#181818;stroke-width:0.5;"/><line style="stroke:#181818;stroke-width:1.0;" x1="127.2129" x2="127.2129" y1="30" y2="50"/><polygon fill="#181818" points="123.2129,40,127.2129,50,131.2129,40,127.2129,44" style="stroke:#181818;stroke-width:1.0;"/><line style="stroke:#181818;stroke-width:1.0;" x1="127.2129" x2="127.2129" y1="83.9688" y2="103.9688"/><polygon fill="#181818" points="123.2129,93.9688,127.2129,103.9688,131.2129,93.9688,127.2129,97.9688" style="stroke:#181818;stroke-width:1.0;"/><line style="stroke:#181818;stroke-width:1.0;" x1="127.2129" x2="127.2129" y1="137.9375" y2="157.9375"/><polygon fill="#181818" points="123.2129,147.9375,127.2129,157.9375,131.2129,147.9375,127.2129,151.9375" style="stroke:#181818;stroke-width:1.0;"/><line style="stroke:#181818;stroke-width:1.0;" x1="127.2129" x2="127.2129" y1="708.5508" y2="743.5508"/><polygon fill="#181818" points="123.2129,733.5508,127.2129,743.5508,131.2129,733.5508,127.2129,737.5508" style="stroke:#181818;stroke-width:1.0;"/><line style="stroke:#181818;stroke-width:1.0;" x1="127.2129" x2="127.2129" y1="777.5195" y2="797.5195"/><polygon fill="#181818" points="123.2129,787.5195,127.2129,797.5195,131.2129,787.5195,127.2129,791.5195" style="stroke:#181818;stroke-width:1.0;"/><line style="stroke:#181818;stroke-width:1.0;" x1="127.2129" x2="127.2129" y1="594.3047" y2="618.707"/><polygon fill="#181818" points="123.2129,608.707,127.2129,618.707,131.2129,608.707,127.2129,612.707" style="stroke:#181818;stroke-width:1.0;"/><line style="stroke:#181818;stroke-width:1.0;" x1="175.5295" x2="231.4297" y1="582.3047" y2="582.3047"/><polygon fill="#181818" points="227.4297,713.6133,231.4297,723.6133,235.4297,713.6133,231.4297,717.6133" style="stroke:#181818;stroke-width:1.0;"/><line style="stroke:#181818;stroke-width:1.0;" x1="231.4297" x2="231.4297" y1="582.3047" y2="841.5195"/><line style="stroke:#181818;stroke-width:1.0;" x1="231.4297" x2="127.2129" y1="841.5195" y2="841.5195"/><line style="stroke:#181818;stroke-width:1.0;" x1="127.2129" x2="127.2129" y1="841.5195" y2="861.5195"/><polygon fill="#181818" points="123.2129,851.5195,127.2129,861.5195,131.2129,851.5195,127.2129,855.5195" style="stroke:#181818;stroke-width:1.0;"/><line style="stroke:#181818;stroke-width:1.0;" x1="127.2129" x2="127.2129" y1="550.3047" y2="570.3047"/><polygon fill="#181818" points="123.2129,560.3047,127.2129,570.3047,131.2129,560.3047,127.2129,564.3047" style="stroke:#181818;stroke-width:1.0;"/><line style="stroke:#181818;stroke-width:1.0;" x1="127.2129" x2="127.2129" y1="408.1211" y2="432.5234"/><polygon fill="#181818" points="123.2129,422.5234,127.2129,432.5234,131.2129,422.5234,127.2129,426.5234" style="stroke:#181818;stroke-width:1.0;"/><line style="stroke:#181818;stroke-width:1.0;" x1="184.7813" x2="420.5366" y1="396.1211" y2="396.1211"/><polygon fill="#181818" points="416.5366,631.2227,420.5366,641.2227,424.5366,631.2227,420.5366,635.2227" style="stroke:#181818;stroke-width:1.0;"/><line style="stroke:#181818;stroke-width:1.0;" x1="420.5366" x2="420.5366" y1="396.1211" y2="873.5195"/><line style="stroke:#181818;stroke-width:1.0;" x1="420.5366" x2="139.2129" y1="873.5195" y2="873.5195"/><polygon fill="#181818" points="149.2129,869.5195,139.2129,873.5195,149.2129,877.5195,145.2129,873.5195" style="stroke:#181818;stroke-width:1.0;"/><line style="stroke:#181818;stroke-width:1.0;" x1="127.2129" x2="127.2129" y1="364.1211" y2="384.1211"/><polygon fill="#181818" points="123.2129,374.1211,127.2129,384.1211,131.2129,374.1211,127.2129,378.1211" style="stroke:#181818;stroke-width:1.0;"/><line style="stroke:#181818;stroke-width:1.0;" x1="127.2129" x2="127.2129" y1="235.9063" y2="260.3086"/><polygon fill="#181818" points="123.2129,250.3086,127.2129,260.3086,131.2129,250.3086,127.2129,254.3086" style="stroke:#181818;stroke-width:1.0;"/><line style="stroke:#181818;stroke-width:1.0;" x1="167.2769" x2="438.5366" y1="223.9063" y2="223.9063"/><polygon fill="#181818" points="434.5366,561.8164,438.5366,571.8164,442.5366,561.8164,438.5366,565.8164" style="stroke:#181818;stroke-width:1.0;"/><line style="stroke:#181818;stroke-width:1.0;" x1="438.5366" x2="438.5366" y1="223.9063" y2="917.5195"/><line style="stroke:#181818;stroke-width:1.0;" x1="438.5366" x2="139.2129" y1="917.5195" y2="917.5195"/><polygon fill="#181818" points="149.2129,913.5195,139.2129,917.5195,149.2129,921.5195,145.2129,917.5195" style="stroke:#181818;stroke-width:1.0;"/><line style="stroke:#181818;stroke-width:1.0;" x1="127.2129" x2="127.2129" y1="885.5195" y2="905.5195"/><polygon fill="#181818" points="123.2129,895.5195,127.2129,905.5195,131.2129,895.5195,127.2129,899.5195" style="stroke:#181818;stroke-width:1.0;"/><line style="stroke:#181818;stroke-width:1.0;" x1="127.2129" x2="127.2129" y1="191.9063" y2="211.9063"/><polygon fill="#181818" points="123.2129,201.9063,127.2129,211.9063,131.2129,201.9063,127.2129,205.9063" style="stroke:#181818;stroke-width:1.0;"/><!--SRC=[TP5FQyCm3CNl_XGw9fJ2jcF265ssbJ7AeBJiM1nNIRMwLf3TbNtxAKdPNtOmsC_Iq_FFCLb9nXIFMmo96d8MrX459Z2RBy62u1ixAwKfvlShwFH8U9hswXvLNF3MUd0ST1qwZkH8znCuMGaKsbWQGmra5OU6v61lSaWx3905pWr0KTdWqDiIOkBEe8y8MQJSODXICxQ-d9t02ILo73yz-aBrkEFQOnzXc33Cpp1gTKsIbrhnFG1uIYZM_mho9mh0LnZT3t56fMyunolGqu625QYjswjOci09GQZT9MrxyCTN1Xh8EbQOwsepgwhDnPLUHgu5GUctc3RflSDh1TuxG-ynllrsj8Ndfz_W5XoJw60KOVaFNx74HZ3kmDbaFRSCcUDZI32zL335YcrCFy3fRmrE7m00]--></g></svg>